<svg width="26" height="26" fill="none" xmlns="http://www.w3.org/2000/svg"><path d="M17.693 1.157c.387.152.717.411.95.745.233.334.357.727.357 1.129V13H5c0-.435.088-.866.262-1.267a3.28 3.28 0 01.75-1.072l9.332-8.994c.288-.31.669-.527 1.09-.618a2.141 2.141 0 011.26.108z" fill="#fff"/><path d="M19 22.983c0 .398-.122.787-.352 1.118a2.07 2.07 0 01-.94.74c-.38.157-.8.199-1.204.121a2.078 2.078 0 01-1.066-.555l-9.442-9.084a3.261 3.261 0 01-.74-1.065A3.165 3.165 0 015 13h14v9.983z" fill="#F6F6F6"/></svg>