<svg width="738" height="353" fill="none" xmlns="http://www.w3.org/2000/svg"><g filter="url(#filter0_g_634_946)"><rect x="4" y="4" width="730" height="341" rx="24" fill="#F9F9F9"/></g><mask id="mask0_634_946" style="mask-type:alpha" maskUnits="userSpaceOnUse" x="4" y="4" width="730" height="341"><rect x="4" y="4" width="730" height="341" rx="24" fill="#F49DC4"/></mask><g filter="url(#filter1_g_634_946)" mask="url(#mask0_634_946)"><g filter="url(#filter2_f_634_946)"><path d="M66.222-532.371c81.173-5.912 162.231 7.266 235.185 38.236 72.955 30.969 135.288 78.662 180.857 138.377 45.569 59.715 72.8 129.391 79.011 202.162 6.21 72.77-8.815 146.124-43.594 212.831-34.78 66.707-88.114 124.466-154.746 167.583-66.631 43.117-144.261 70.104-225.239 78.303-80.977 8.198-162.507-2.676-236.554-31.55-74.047-28.874-138.056-74.752-185.718-133.112l128.93-86.172c31.457 38.518 73.702 68.798 122.574 87.854 48.87 19.057 102.68 26.234 156.126 20.823 53.445-5.411 104.68-23.223 148.657-51.68C315.688 82.827 350.889 44.706 373.843.68c22.955-44.027 32.871-92.44 28.773-140.469-4.099-48.029-22.072-94.015-52.148-133.427-30.075-39.412-71.215-70.889-119.365-91.329-48.15-20.44-101.648-29.138-155.222-25.235l-9.659-142.591z" fill="#FFF6FA"/></g><g filter="url(#filter3_f_634_946)"><path d="M77.727-362.546c48.303-3.519 96.537 4.323 139.949 22.752 43.413 18.429 80.505 46.809 107.621 82.343 27.117 35.534 43.321 76.996 47.017 120.299 3.695 43.303-5.246 86.953-25.942 126.648-20.696 39.695-52.433 74.064-92.083 99.722-39.65 25.657-85.844 41.716-134.031 46.595-48.186 4.878-96.702-1.592-140.764-18.774-44.063-17.182-82.152-44.482-110.514-79.21l76.721-51.278c18.72 22.92 43.858 40.939 72.94 52.28 29.08 11.34 61.1 15.61 92.904 12.39 31.803-3.22 62.291-13.82 88.461-30.753 26.169-16.934 47.115-39.618 60.774-65.817 13.66-26.198 19.561-55.007 17.121-83.587-2.439-28.58-13.134-55.945-31.03-79.397-17.897-23.453-42.378-42.184-71.03-54.347-28.652-12.163-60.487-17.338-92.367-15.016l-5.747-84.85z" fill="#FFEAF0"/></g><g filter="url(#filter4_f_634_946)"><path d="M499.822 509.209c-20.991-15.296-35.798-36.74-42.96-62.218-7.162-25.478-6.433-54.111 2.116-83.076 8.549-28.966 24.623-57.264 46.638-82.107 22.014-24.843 49.209-45.373 78.904-59.566 29.696-14.193 60.867-21.559 90.441-21.374 29.575.186 56.532 7.918 78.216 22.434 21.683 14.516 37.344 35.315 45.439 60.347 8.095 25.032 8.345 53.433.725 82.405l-114.584 1.039c2.511-9.549 2.429-18.909-.239-27.159-2.668-8.25-7.83-15.104-14.976-19.888-7.146-4.784-16.031-7.333-25.777-7.394-9.747-.061-20.021 2.367-29.807 7.044-9.787 4.678-18.75 11.444-26.005 19.631-7.255 8.188-12.553 17.514-15.371 27.061-2.817 9.546-3.057 18.982-.697 27.379 2.36 8.397 7.24 15.464 14.159 20.506l-86.222 94.936z" fill="#FFEAF0"/></g></g><defs><filter id="filter0_g_634_946" x="0" y="0" width="738" height="349" filterUnits="userSpaceOnUse" color-interpolation-filters="sRGB"><feFlood flood-opacity="0" result="BackgroundImageFix"/><feBlend in="SourceGraphic" in2="BackgroundImageFix" result="shape"/><feTurbulence type="fractalNoise" baseFrequency="0.083333335816860199 0.083333335816860199" numOctaves="3" seed="4909"/><feDisplacementMap in="shape" scale="8" xChannelSelector="R" yChannelSelector="G" result="displacedImage"/><feMerge result="effect1_texture_634_946"><feMergeNode in="displacedImage"/></feMerge></filter><filter id="filter1_g_634_946" x="-322.976" y="-572.149" width="1166.25" height="1119.76" filterUnits="userSpaceOnUse" color-interpolation-filters="sRGB"><feFlood flood-opacity="0" result="BackgroundImageFix"/><feBlend in="SourceGraphic" in2="BackgroundImageFix" result="shape"/><feTurbulence type="fractalNoise" baseFrequency="0.16393442451953888 0.16393442451953888" numOctaves="3" seed="4213"/><feDisplacementMap in="shape" scale="76.8" xChannelSelector="R" yChannelSelector="G" result="displacedImage"/><feMerge result="effect1_texture_634_946"><feMergeNode in="displacedImage"/></feMerge></filter><filter id="filter2_f_634_946" x="-334.576" y="-583.749" width="947.218" height="941.523" filterUnits="userSpaceOnUse" color-interpolation-filters="sRGB"><feFlood flood-opacity="0" result="BackgroundImageFix"/><feBlend in="SourceGraphic" in2="BackgroundImageFix" result="shape"/><feGaussianBlur stdDeviation="25" result="effect1_foregroundBlur_634_946"/></filter><filter id="filter3_f_634_946" x="-161.02" y="-393.366" width="564.147" height="560.758" filterUnits="userSpaceOnUse" color-interpolation-filters="sRGB"><feFlood flood-opacity="0" result="BackgroundImageFix"/><feBlend in="SourceGraphic" in2="BackgroundImageFix" result="shape"/><feGaussianBlur stdDeviation="15" result="effect1_foregroundBlur_634_946"/></filter><filter id="filter4_f_634_946" x="421.98" y="170.865" width="412.897" height="368.344" filterUnits="userSpaceOnUse" color-interpolation-filters="sRGB"><feFlood flood-opacity="0" result="BackgroundImageFix"/><feBlend in="SourceGraphic" in2="BackgroundImageFix" result="shape"/><feGaussianBlur stdDeviation="15" result="effect1_foregroundBlur_634_946"/></filter></defs></svg>