<svg width="754" height="116" fill="none" xmlns="http://www.w3.org/2000/svg"><g filter="url(#filter0_g_319_743)"><rect x="4" y="4" width="746" height="108" rx="24" fill="url(#paint0_linear_319_743)"/></g><path d="M52.944 64.76c0 3.872-2.56 6.24-6.784 6.24h-8.864V48.216h8.576c4.032 0 6.72 2.4 6.72 5.984 0 1.632-.576 3.008-1.664 4.032-.48.48-.832.672-1.696 1.056 1.056.448 1.472.704 2.016 1.248 1.12 1.088 1.696 2.496 1.696 4.224zM50.16 54.328c0-2.464-1.664-3.936-4.48-3.936h-5.952v7.904h5.952c2.816 0 4.48-1.472 4.48-3.968zm.352 10.304c0-2.56-1.76-4.16-4.576-4.16h-6.208v8.352h6.208c2.816 0 4.576-1.632 4.576-4.192zM74.799 71h-2.304V55.256h2.304V71zm-4.832-4.736c0 2.848-1.984 4.736-4.992 4.736h-7.008V55.256h2.272v6.24h4.736c3.008 0 4.992 1.888 4.992 4.768zm-2.304 0c0-1.76-1.024-2.752-2.944-2.752h-4.48v5.504h4.48c1.92 0 2.944-.992 2.944-2.752zm18.777 2.88c1.056 0 2.112-.416 2.816-1.152.864-.928 1.248-2.272 1.248-4.736 0-2.528-.32-4-1.216-4.928a4.016 4.016 0 00-2.848-1.216c-1.12 0-2.144.448-2.88 1.216-.832.896-1.312 2.368-1.312 4.864 0 2.56.448 3.872 1.344 4.8.704.736 1.76 1.152 2.848 1.152zm0 2.048c-2.912 0-5.056-1.568-5.888-4.192-.544-1.728-.576-4.704-.576-6.976 0-6.208.224-7.904 2.208-9.76 2.304-2.208 6.24-1.984 9.408-2.208v2.08c-2.112.256-5.952 0-7.776 1.568-1.472 1.28-1.76 3.136-1.76 5.792.768-1.408 2.688-2.336 4.736-2.336 1.6 0 2.944.48 3.936 1.408 1.408 1.312 2.048 3.648 2.048 6.528 0 3.136-.544 4.992-1.92 6.368-1.056 1.088-2.656 1.728-4.416 1.728zm23.398-8.064c0 2.528-.352 5.088-1.92 6.688-.832.832-2.208 1.376-3.84 1.376-1.728 0-3.136-.416-4.448-2.048v8.896h-2.304V55.256h2.304v1.856c1.312-1.632 2.688-2.048 4.448-2.048 1.632 0 3.008.544 3.84 1.376 1.568 1.568 1.92 4.16 1.92 6.688zm-2.304 0c0-3.072-.512-6.016-3.936-6.016-3.456 0-3.968 2.944-3.968 6.016s.512 6.016 3.968 6.016c3.424 0 3.936-2.944 3.936-6.016zM125.676 71h-2.304v-1.504c-1.248 1.248-2.432 1.696-4.544 1.696-2.176 0-3.36-.384-4.448-1.44-.8-.768-1.184-1.952-1.184-3.2 0-2.784 1.952-4.544 5.472-4.544h4.704v-1.504c0-2.272-1.12-3.456-4.032-3.456-1.984 0-3.008.512-3.968 1.824l-1.568-1.44c1.376-1.824 2.976-2.368 5.568-2.368 4.256 0 6.304 1.856 6.304 5.248V71zm-2.304-5.568v-1.696h-4.384c-2.368 0-3.552.928-3.552 2.784 0 1.824 1.12 2.688 3.648 2.688 1.312 0 2.464-.128 3.488-1.056.544-.512.8-1.408.8-2.72zm17.775-8.192h-5.152V71h-2.304V57.24h-5.408v-1.984h12.864v1.984zm14.908 9.024c0 2.848-1.984 4.736-4.992 4.736h-7.008V55.256h2.272v6.24h4.736c3.008 0 4.992 1.888 4.992 4.768zm-2.304 0c0-1.76-1.024-2.752-2.944-2.752h-4.48v5.504h4.48c1.92 0 2.944-.992 2.944-2.752zM179.731 71h-2.304V57.24h-7.616V71h-2.272V55.256h12.192V71zm17.301-7.872c0 2.432-.32 4.64-1.92 6.272-1.088 1.12-2.592 1.792-4.512 1.792-1.92 0-3.424-.672-4.512-1.792-1.6-1.632-1.92-3.84-1.92-6.272 0-2.432.32-4.672 1.92-6.272 1.088-1.12 2.592-1.792 4.512-1.792 1.92 0 3.424.672 4.512 1.792 1.6 1.6 1.92 3.84 1.92 6.272zm-2.304 0c0-1.792-.096-3.712-1.248-4.864-.768-.768-1.76-1.152-2.88-1.152-1.12 0-2.08.384-2.848 1.152-1.152 1.152-1.28 3.072-1.28 4.864 0 1.76.096 3.68 1.28 4.864.768.768 1.728 1.152 2.848 1.152 1.12 0 2.112-.384 2.88-1.152 1.152-1.184 1.248-3.104 1.248-4.864zm19.433 0c0 2.528-.352 5.088-1.92 6.688-.832.832-2.208 1.376-3.84 1.376-1.728 0-3.136-.416-4.448-2.048v8.896h-2.304V55.256h2.304v1.856c1.312-1.632 2.688-2.048 4.448-2.048 1.632 0 3.008.544 3.84 1.376 1.568 1.568 1.92 4.16 1.92 6.688zm-2.304 0c0-3.072-.512-6.016-3.936-6.016-3.456 0-3.968 2.944-3.968 6.016s.512 6.016 3.968 6.016c3.424 0 3.936-2.944 3.936-6.016zm18.941 0c0 2.432-.32 4.64-1.92 6.272-1.088 1.12-2.592 1.792-4.512 1.792-1.92 0-3.424-.672-4.512-1.792-1.6-1.632-1.92-3.84-1.92-6.272 0-2.432.32-4.672 1.92-6.272 1.088-1.12 2.592-1.792 4.512-1.792 1.92 0 3.424.672 4.512 1.792 1.6 1.6 1.92 3.84 1.92 6.272zm-2.304 0c0-1.792-.096-3.712-1.248-4.864-.768-.768-1.76-1.152-2.88-1.152-1.12 0-2.08.384-2.848 1.152-1.152 1.152-1.28 3.072-1.28 4.864 0 1.76.096 3.68 1.28 4.864.768.768 1.728 1.152 2.848 1.152 1.12 0 2.112-.384 2.88-1.152 1.152-1.184 1.248-3.104 1.248-4.864zm20.152 12.576h-2.24V71h-11.712v4.704h-2.208v-6.688h1.856c1.184-2.624 2.08-5.024 2.08-10.752v-3.008h9.888v13.76h2.336v6.688zm-4.64-6.688V57.24h-5.376v2.976c-.032 4.16-.768 6.464-1.792 8.8h7.168zm18.692-13.76l-7.168 19.552c-.736 2.016-2.048 2.944-4.192 2.944h-.992v-2.048h.704c1.504 0 2.016-.384 2.592-1.952l1.12-3.072-5.664-15.424h2.496l4.32 12.64 4.288-12.64h2.496z" fill="#D7D7D7"/><rect x="672" y="33" width="50" height="50" rx="12" fill="#D7D7D7"/><path d="M705 54l-8 8-8-8" stroke="#fff" stroke-width="4" stroke-linecap="round" stroke-linejoin="round"/><defs><linearGradient id="paint0_linear_319_743" x1="4" y1="58" x2="750" y2="58" gradientUnits="userSpaceOnUse"><stop stop-color="#fff"/><stop offset="1" stop-color="#F0F0F0"/></linearGradient><filter id="filter0_g_319_743" x="0" y="0" width="754" height="116" filterUnits="userSpaceOnUse" color-interpolation-filters="sRGB"><feFlood flood-opacity="0" result="BackgroundImageFix"/><feBlend in="SourceGraphic" in2="BackgroundImageFix" result="shape"/><feTurbulence type="fractalNoise" baseFrequency="0.083333335816860199 0.083333335816860199" numOctaves="3" seed="4909"/><feDisplacementMap in="shape" scale="8" xChannelSelector="R" yChannelSelector="G" result="displacedImage"/><feMerge result="effect1_texture_319_743"><feMergeNode in="displacedImage"/></feMerge></filter></defs></svg>