<svg width="203" height="108" fill="none" xmlns="http://www.w3.org/2000/svg"><path d="M201.089 31.247a11.011 11.011 0 01-2.328-5.472c-.089-.537-.156-1.003-.223-1.423-.133-2-.83-3.913-2.004-5.496-1.715-2.509-6.159-5.39-7.25-6.033a16.307 16.307 0 00-1.604-.781c-1.046-.467-2.361-1.05-2.695-1.692a6.566 6.566 0 01-.066-3.35v-.07c0-.432.189-1.167.334-1.89a26.83 26.83 0 00.523-3.29 1.79 1.79 0 00-.08-.687 1.742 1.742 0 00-.332-.597 1.554 1.554 0 00-.512-.35A1.499 1.499 0 00184.25 0c-.955.11-1.87.467-2.661 1.039-1.916 1.26-7.361 7.596-7.974 8.319-1.448 1.797-3.909 4.796-4.454 5.274-.802.735-6.593 3.874-15.102 5.262-.367.059-.824.105-1.38.175-3.174.362-9.077 1.027-20.414 4.983a32.109 32.109 0 01-10.345 1.33 93.046 93.046 0 01-18.431-2.077l-1.994-.444a75.876 75.876 0 00-16.18-2.146h-3.687c-6.481 0-9.455 1.05-16.348 4.667-5.045 3.022-9.388 8.494-15.658 17.502C39.365 58.62 37.973 60.3 30.2 62.168c-2.135.53-4.32.8-6.515.805-5.29 0-10.657-1.564-16.905-4.924a8.416 8.416 0 00-3.842-1.167 2.694 2.694 0 00-1.593.389 2.88 2.88 0 00-1.113 1.256 3.89 3.89 0 00-.165 2.04c.128.682.436 1.314.889 1.822 3.933 3.949 8.774 6.763 14.054 8.168a44.168 44.168 0 0011.136 1.575c6.047.166 11.97-1.807 16.816-5.6C47.93 62.646 54.7 53.837 58.308 48.89a22.63 22.63 0 01-2.305 13.581c-2.06 3.5-7.918 9.078-9.9 9.825-1.983.746-2.528 2.473-2.94 4.235-.123.549-.256 1.167-.446 1.715-.857 2.649-5.19 14.095-5.947 15.694-.969 2.007-.701 3.99-.278 6.196 0 .268.1.525.134.793.312 1.785.69 4.026 3.34 4.026h6.304l.167-.082a4.56 4.56 0 001.5-1.214 4.826 4.826 0 00.894-1.75 4.875 4.875 0 00-.236-2.214 4.684 4.684 0 00-1.19-1.846c-.901-1.05-1.024-1.61-1.035-1.762.88-2.077 3.341-7.351 4.867-8.646l.378-.315c1.782-1.494 2.862-2.334 7.272-3.174a43.39 43.39 0 0010.569-3.15c.122.863.19 2.333.256 3.5a37.24 37.24 0 00.635 6.172c.579 2.334 1.492 3.186 3.151 4.784.925.899 2.083 2.019 3.63 3.804 4.456 5.053 11.349 8.343 11.638 8.483l.179.082h.178l9.154-.059h.445l.246-.385c.99-1.528 2.227-5.017-.368-7.327a5.36 5.36 0 00-3.642-1.447 6.047 6.047 0 00-2.416.525l-7.64-6.406a3.846 3.846 0 01-.109-1.645c.083-.55.284-1.072.588-1.529a74.088 74.088 0 005.568-8.914c.758-1.319 1.403-2.462 1.816-3.127 1.225-2.054 5.746-5.064 6.681-5.356a54.72 54.72 0 0011.137 1.54c.932.007 1.863-.067 2.784-.221.894-.157 1.8-.231 2.706-.222 3.473.089 6.912.73 10.201 1.902 2.138.817 2.862 1.097 3.218 3.874.413 3.185 1.972 16.335 2.228 18.424a5.592 5.592 0 001.525 3.267 12.279 12.279 0 001.693 4.48 10.846 10.846 0 002.896 2.882l.122.117h9.466l.145-.058a3.97 3.97 0 001.331-.861c.385-.376.695-.828.912-1.33a4.347 4.347 0 00.096-3.212 4.473 4.473 0 00-1.606-2.373 4.129 4.129 0 00-2.66-.835 6.818 6.818 0 00-2.116.361 18.872 18.872 0 01-2.227-2.753c.167-1.015.668-3.944 1.114-5.834.334-1.319 1.436-4.528 2.327-7.106.824-2.392 1.248-3.78 1.381-4.177.223-.7.702-1.669.936-1.727 1.303 1.166 8.452 7.689 13.697 9.72a43.807 43.807 0 015.981 2.905 12.923 12.923 0 004.978 1.995c1.949.151 6.169 3.5 8.909 5.764.702.56 1.347 1.073 1.927 1.517a14.587 14.587 0 012.338 2.333 6.355 6.355 0 001.994 1.901 6.027 6.027 0 002.572.841l1.448.187c.781.135 1.57.217 2.361.245a2.674 2.674 0 001.628-.385 2.863 2.863 0 001.122-1.295 6.756 6.756 0 00.234-4.842 6.888 6.888 0 00-1.389-2.33 6.537 6.537 0 00-2.152-1.568 23.247 23.247 0 01-6.359-4.807c-.334-.35-7.495-7.654-8.909-8.95-1.916-1.738-11.894-11.994-13.063-14.176a20.09 20.09 0 011.659-1.365c4.171-2.928 7.698-6.755 10.346-11.225.335-.703.608-1.437.813-2.193.439-1.486.998-2.93 1.67-4.318a9.374 9.374 0 011.704-1.166 33.599 33.599 0 004.455-2.334 4.406 4.406 0 012.227-.548c.378-.022.756.034 1.114.163 1.457.374 2.955.543 4.454.502a14.84 14.84 0 003.041-.245 4.897 4.897 0 001.708-1.01 5.161 5.161 0 001.198-1.627 12.15 12.15 0 001.515-1.4 7.381 7.381 0 001.28-2.638 4.69 4.69 0 001.27-2.03c.746-2.053-1.314-4.084-1.737-4.469z" fill="#FEA7C1"/><path d="M187.336 19.381c-2.328-2.893-3.943-4.189-6.248-4.667-2.305-.478-6.437.21-10.58 5.472-1.113.899-2.294 1.914-3.686 3.104-3.274 2.765-8.163 6.908-9.51 7.503a10.973 10.973 0 01-2.773-.572 10.037 10.037 0 00-2.851-.56 74.39 74.39 0 00-12.417 1.062C115 33.686 100 26.5 91.601 26.195c-17.485-.513-28.9 4.48-37.018 16.044-5.635 8.063-13.825 20.314-21.565 22.648-7.74 2.333-20.58-1.949-20.714-1.995a1.847 1.847 0 00-1.47.12c-.455.243-.8.666-.958 1.175-.154.51-.11 1.064.124 1.54.234.477.637.837 1.123 1.003a58.273 58.273 0 0016.393 2.894 22.385 22.385 0 006.593-.863c8.987-2.766 17.578-15.542 23.536-24.142 7.44-10.571 19.488-14.398 33.855-14.398 6.47 0 14.695 4.422 20.019 4.562-5.402 5.962-6.17 16.592-2.963 25.017.144.373.39.693.707.919.317.226.691.349 1.075.352a2.011 2.011 0 001.364-.575c.185-.183.333-.403.436-.647a2.112 2.112 0 00.038-1.555c-3.252-8.517-1.738-20.15 5.635-23.243.072-.03.143-.065.211-.105h3.486c-2.954 3.092-4.996 7.01-5.881 11.284a23.79 23.79 0 00.892 12.823c.143.376.39.698.71.925.319.226.697.347 1.083.346.242.012.483-.024.713-.105.237-.095.455-.239.639-.423.185-.183.333-.404.437-.647a2.111 2.111 0 00.037-1.555c-3.218-8.447.724-19.346 8.096-22.508h2.495c-2.828 2.858-4.738 6.566-5.464 10.612a20.7 20.7 0 001.41 11.966c.154.35.401.646.711.853a1.851 1.851 0 001.84.127c.23-.11.438-.268.61-.462.173-.195.307-.424.395-.673a2.108 2.108 0 00-.059-1.548 16.518 16.518 0 01-.454-12.058c1.376-3.925 4.177-7.12 7.793-8.887l.123-.081a18.522 18.522 0 002.316-.245 70.5 70.5 0 0111.738-1.004c.214.007.427.038.635.094l3.084 41.515c.032.27.116.532.246.769.13.236.304.443.512.608l32.986 24.771a1.854 1.854 0 002.14.123c.218-.135.408-.313.56-.526.153-.212.263-.453.326-.71a2.091 2.091 0 00-.208-1.532 1.988 1.988 0 00-.502-.587l-32.296-24.246-2.85-39.217c.391.052.785.079 1.18.082 1.604 0 3.809-1.692 11.738-8.413l1.86-1.575a14.33 14.33 0 003.998 5.6c3.808 2.848 7.984 3.921 9.432 4.668 1.448.747 8.709 3.92 10.223-.514 1.515-4.433-5.055-12.403-7.416-15.215z" fill="#fff"/><path d="M150.324 31.429a1.875 1.875 0 00-1.461.282 2.042 2.042 0 00-.847 1.279l-5.942 28.144-7.383 17.814c-.113.27-.166.563-.157.857.493 22.18 1.569 23.658 1.983 24.233 1.289 1.725 4.694 2.136 7.674 2.136h1.02a1.897 1.897 0 001.355-.632 2.08 2.08 0 00.532-1.451 2.074 2.074 0 00-.603-1.42 1.89 1.89 0 00-1.385-.557 17.058 17.058 0 01-5.445-.575c-.526-2.347-1.03-12.31-1.243-21.37l7.282-17.603a2.12 2.12 0 00.123-.376l5.975-28.344a2.11 2.11 0 00-.261-1.53 1.984 1.984 0 00-.524-.57 1.9 1.9 0 00-.693-.317z" fill="#fff"/></svg>