<svg width="117" height="133" fill="none" xmlns="http://www.w3.org/2000/svg"><path d="M95.951 45.252l14.802 6.78c3.695 1.693 6.035 5.482 5.542 9.516-.874 7.147-2.47 13.146-4.455 17.845-2.584 6.12-9.676 8.012-15.333 11.495-14.4 8.865-14.395 36.548-14.395 36.548s-25.353 4.984-44.242 4.809c-17.634-.163-42.8-8.656-37.028-21.64C6.612 97.621 9.344 90.77 7.47 81.273c-4.44-22.513 3.1-43.64 9.707-49.894-1.526-10.4 7.032-21.201 12.931-27.56 1.485-1.6 4.22-.726 4.903 1.347 3.257 9.887 10.857 15.915 15.399 17.625 28.616-1.321 36.338 11.891 45.54 22.46z" fill="#FEA7C1"/><g clip-path="url(#clip0_312_1481)"><path d="M33.211 73.874a5.808 5.808 0 01-4.743-.047c-1.514-.69-2.71-1.997-3.324-3.634a7.107 7.107 0 01.043-5.092c.643-1.624 1.86-2.907 3.385-3.568a5.808 5.808 0 014.744.047c1.513.69 2.709 1.997 3.324 3.633a7.106 7.106 0 01-.044 5.093c-.642 1.624-1.86 2.907-3.385 3.568zm10.526-9.746a15.566 15.566 0 00-.528-1.76 16.796 16.796 0 00-.778-1.713l2.386-4.375a1.01 1.01 0 00-.227-1.214l-5.578-4.677a.826.826 0 00-1.148.046l-3.426 3.535c-1.113-.318-2.225-.533-3.426-.526l-2.364-4.408a.91.91 0 00-.484-.408.839.839 0 00-.615.023l-6.57 2.846c-.41.178-.636.644-.542 1.096l1.148 4.935c-.869.889-1.53 1.873-2.126 2.93l-4.752.009c-.42-.003-.804.348-.856.821l-.991 7.523c-.068.48.21.913.621 1.043l4.546 1.372c.16.628.329 1.231.547 1.813.22.582.48 1.125.758 1.66l-2.365 4.428a.984.984 0 00.227 1.214l5.578 4.677c.343.302.84.25 1.148-.047l3.42-3.552c1.119.336 2.23.55 3.431.543l2.364 4.409a.864.864 0 001.1.385l6.569-2.846c.41-.178.636-.645.543-1.096l-1.149-4.935c.862-.907 1.53-1.873 2.12-2.948l4.758.01a.915.915 0 00.856-.823l.992-7.522c.051-.473-.21-.914-.621-1.043l-4.566-1.425z" fill="#fff"/></g><g clip-path="url(#clip1_312_1481)"><path d="M60.63 53.973a4.55 4.55 0 01-3.717.03c-1.194-.519-2.147-1.526-2.649-2.799a5.569 5.569 0 01-.029-3.99c.484-1.282 1.422-2.305 2.608-2.844a4.551 4.551 0 013.718-.03c1.194.519 2.146 1.526 2.649 2.8a5.568 5.568 0 01.028 3.99c-.483 1.281-1.422 2.304-2.608 2.843zm8.127-7.785a12.153 12.153 0 00-.436-1.372 13.104 13.104 0 00-.63-1.33l1.814-3.462a.788.788 0 00-.192-.947l-4.428-3.585a.648.648 0 00-.898.052l-2.642 2.818c-.875-.233-1.749-.386-2.69-.363l-1.906-3.42a.71.71 0 00-.384-.314.657.657 0 00-.482.027l-5.111 2.323a.768.768 0 00-.412.867l.96 3.85c-.67.709-1.176 1.489-1.63 2.325l-3.722.075c-.33.004-.626.284-.66.656l-.685 5.907c-.047.378.176.713.5.809l3.578 1.01c.133.49.273.96.452 1.413.178.452.39.874.614 1.29l-1.799 3.502a.77.77 0 00.193.948l4.428 3.585c.272.232.66.185.898-.053l2.636-2.831c.88.247 1.755.4 2.695.377l1.906 3.42c.181.306.547.43.867.286l5.111-2.323a.768.768 0 00.412-.866l-.96-3.85a10.83 10.83 0 001.623-2.34l3.729-.06a.72.72 0 00.66-.656l.684-5.908c.035-.372-.175-.713-.5-.808l-3.593-1.052z" fill="#fff"/></g><g clip-path="url(#clip2_312_1481)"><path d="M38.708 40.99a3.47 3.47 0 01-2.853.119c-.928-.372-1.681-1.127-2.095-2.1a4.344 4.344 0 01-.11-3.087c.344-1.004 1.041-1.82 1.94-2.267a3.47 3.47 0 012.853-.119c.927.372 1.68 1.127 2.094 2.1.414.972.453 2.083.11 3.087s-1.04 1.82-1.94 2.267zm6.066-6.233a9.431 9.431 0 00-.364-1.05 10.134 10.134 0 00-.513-1.014l1.317-2.725a.612.612 0 00-.17-.728l-3.476-2.662a.495.495 0 00-.69.064l-1.964 2.248c-.678-.158-1.352-.254-2.073-.212l-1.539-2.599a.542.542 0 00-.301-.232.502.502 0 00-.37.033l-3.872 1.928a.599.599 0 00-.297.681l.822 2.956c-.499.565-.87 1.182-1.2 1.841l-2.856.152c-.253.012-.475.237-.493.525l-.395 4.59a.566.566 0 00.401.612l2.769.691c.113.376.23.736.377 1.082.148.346.32.666.5.983l-1.303 2.756a.597.597 0 00.169.729l3.477 2.661a.506.506 0 00.689-.063l1.96-2.26c.682.17 1.356.265 2.078.224l1.538 2.598c.146.232.43.32.671.2l3.873-1.929a.599.599 0 00.297-.681l-.822-2.955a8.445 8.445 0 001.195-1.852l2.86-.142a.558.558 0 00.493-.525l.396-4.59c.018-.288-.15-.547-.402-.612l-2.782-.722z" fill="#fff"/></g><defs><clipPath id="clip0_312_1481"><path fill="#fff" transform="matrix(.9176 -.39749 .35189 .93604 3.231 55.085)" d="M0 0h42.955v45.202H0z"/></clipPath><clipPath id="clip1_312_1481"><path fill="#fff" transform="matrix(.91042 -.4137 .36685 .93028 36.91 39.678)" d="M0 0h33.688v35.39H0z"/></clipPath><clipPath id="clip2_312_1481"><path fill="#fff" transform="matrix(.89518 -.4457 .39117 .92032 20.186 30.533)" d="M0 0h25.957v27.326H0z"/></clipPath></defs></svg>