<svg width="163" height="150" fill="none" xmlns="http://www.w3.org/2000/svg"><path d="M25.623 120.351c-.922 2.5-4.4 12.997-5.668 15.979-1.267 2.983.04 6.405 2.783 8.399 1.949 1.418 5.705 1.729 7.496-.661 1.85-2.469 4.977-12.151 6.37-16.461l.083-.259v-.001c.331-1.024.573-1.771.695-2.102 1.245-3.35 1.452-6.949 1.426-10.537-.006-.924-.028-1.846-.052-2.764-.095-4.265-.174-8.656 1.36-11.283.94-1.566 1.714-1.663 2.005-1.69 1.396-.163 4.015.863 6.76 3.567.096.09.192.185.29.284 1.397 1.401 3.136 3.619 5.006 6.003l.626.798.033.042.004.005c.825 1.058 1.665 2.136 2.521 3.215 5.435 6.846 11.536 13.745 18.742 16.19 5.304 1.784 10.56.559 14.425-3.355 5.34-5.441 6.809-14.853 5.12-20.461-1.814-6.044-7.372-11.02-15.797-18.227l-1.247-1.065-7.872-6.829a96.398 96.398 0 01-.512-.456c-9.237-8.285-11.513-13.47-11.676-15.1.793-.383 3.571-.248 5.996 1.27 1.17.831 5.34 4.971 9.641 9.288.822.824 1.647 1.654 2.458 2.47l.027.026c.483.487.96.967 1.43 1.438a2178.5 2178.5 0 005.086 5.13c9.014 9.054 15.297 15.096 18.726 17.09 2.781 1.608 5.9 1.902 8.817.819 4.921-1.81 8.308-7.23 10.187-11.2 3.98 2.609 4.669 3.206 8.69 3.57 5.283.465 9.642-2.381 9.642-2.381 9.158-5.858 7.272-11.837 3.269-30.77-3.187-15.275-9.93-24.44-9.93-24.44s-4.691-2.776-.809-8.546c0 0 5.392-6.711 11.167-13.514 2.235-2.633-.468-5.474-2.813-7.88-3.652-3.749-5.486-2.635-6.872-1.219-1.386 1.417-7.272 8-16.045 17.082 0 0-13.138-6.674-17.8-6.56-.613-.003-17.175-.096-23.856 14.755-3.853 8.412-3.957 26.605 11.743 29.087l.29.044c3.83.587 7.867 1.496 7.837 6.905 0 0 .376.666 1.122 1.794 1.56 2.358 4.734 6.733 9.458 11.245l4.308 3.263c-.949 2.31-2.33 4.729-3.377 5.902-3.058-2.372-9.688-8.914-15.405-14.644a2415.629 2415.629 0 01-3.635-3.653L86.82 68.87a1891.11 1891.11 0 00-4.276-4.32c-6.513-6.555-9.681-9.578-11.553-10.77-7.09-4.451-17.455-5.275-22.76 2.015-3.332 4.578-5.926 14.839 13.625 32.482.256.232.517.465.78.699l8.032 6.957.826.707c5.945 5.09 11.385 9.842 12.135 12.306.426 1.393-.238 5.629-2.016 7.436-.468.479-.78.666-1.78.329-4.288-1.454-9.719-8.051-14.025-13.534-.42-.535-.829-1.059-1.225-1.567l-.032-.041-.341-.438c-2.346-3.01-4.568-5.864-6.665-7.91l-.044-.043c-5.31-5.214-11.54-7.813-17.09-7.118-3.197.38-7.71 2.05-11.045 7.67-3.453 5.832-3.325 12.46-3.189 18.323l.004.239c.053 3.11.108 6.309-.556 8.06z" fill="#59AFE1"/><path d="M24.82 136.905a1.715 1.715 0 00.938 2.239 1.719 1.719 0 002.236-.953l-1.587-.643-1.586-.643zm6.72-25.789l-1.706.169 1.706-.169zM40.078 92.8l.19 1.71.01-.001-.2-1.709zm15.487 8.291l1.32-1.106a1.725 1.725 0 00-.173-.18l-1.147 1.286zm7.258 8.747l1.43-.957a1.873 1.873 0 00-.11-.149l-1.32 1.106zm17.213 14.077l.235 1.703-.235-1.703zm9.699-13.69l1.704-.191-1.704.191zM76.823 94.922L75.69 96.22l.01.008 1.122-1.307zm-8.755-7.675l-1.155 1.277.024.022 1.131-1.3zM52.807 59.621l-1.387-1.004 1.387 1.004zm17.582.771l.931-1.45-.01-.006-.92 1.456zm16.154 16.942l-1.36 1.056c.036.046.074.09.114.133l1.246-1.189zm18.972 20.662a1.712 1.712 0 002.407-.303 1.723 1.723 0 00-.29-2.415l-1.058 1.359-1.059 1.36zm-12.287-13.65l1.219-1.217-1.22 1.216zM79.836 68.595l1.36-1.055a1.702 1.702 0 00-.197-.215l-1.163 1.27zm-50.639 66.32c.31-.9-.166-1.877-1.06-2.183a1.722 1.722 0 00-2.18 1.077l1.62.553 1.62.553zm-1.31-7.473a1.712 1.712 0 001.22 2.097 1.724 1.724 0 002.095-1.235l-1.657-.431-1.657-.431zm4.787-5.925a1.71 1.71 0 00-1.408-1.973 1.725 1.725 0 00-1.973 1.424l1.69.275 1.691.274zm-2.736-7.043a1.707 1.707 0 001.68 1.746 1.728 1.728 0 001.748-1.695l-1.714-.026-1.714-.025zm3.345-5.818c.1-.946-.582-1.79-1.524-1.885a1.727 1.727 0 00-1.885 1.54l1.705.173 1.704.172zM31.15 102.8a1.713 1.713 0 001.063 2.182 1.721 1.721 0 002.179-1.078l-1.62-.552-1.622-.552zm5.244-3.466a1.719 1.719 0 00-.684-2.331 1.717 1.717 0 00-2.326.7l1.505.816 1.505.815zm.28-6.334a1.726 1.726 0 00.027 2.433 1.71 1.71 0 002.424-.041L37.9 94.196 36.673 93zm5.249 1.638a1.724 1.724 0 002.052-1.306 1.711 1.711 0 00-1.29-2.054l-.38 1.68-.382 1.68zm5.341-1.554a1.717 1.717 0 00-2.32.72 1.718 1.718 0 00.704 2.325l.808-1.523.808-1.522zm2.03 5.293a1.714 1.714 0 002.385-.446 1.722 1.722 0 00-.431-2.393l-.977 1.42-.977 1.419zm5.64-.07a1.712 1.712 0 00-2.41.264 1.723 1.723 0 00.25 2.419l1.08-1.342 1.08-1.342zm1.126 6.076a1.707 1.707 0 002.414.213c.729-.61.83-1.696.225-2.424l-1.32 1.105-1.319 1.106zm6.268 2.162a1.708 1.708 0 00-2.414-.213 1.728 1.728 0 00-.225 2.425l1.32-1.106 1.319-1.106zm.798 6.68a1.707 1.707 0 002.4.332 1.729 1.729 0 00.343-2.411l-1.371 1.039-1.372 1.04zm6.297 2.26a1.708 1.708 0 00-2.42-.113 1.727 1.727 0 00-.127 2.431l1.274-1.159 1.273-1.159zm1.765 6.507a1.71 1.71 0 002.413-.243c.603-.736.5-1.821-.23-2.422l-1.091 1.332-1.092 1.333zm6.55-.028a1.721 1.721 0 00-2.168 1.101 1.714 1.714 0 001.084 2.171l.542-1.636.541-1.636zm5.13 2.979a1.731 1.731 0 001.001-2.222 1.704 1.704 0 00-2.208-.994l.604 1.608.603 1.608zm2.03-5.339a1.726 1.726 0 00-.011 2.434 1.71 1.71 0 002.424-.001l-1.207-1.217-1.206-1.216zm5.361-1.905a1.717 1.717 0 00-.874-2.266 1.72 1.72 0 00-2.261.89l1.567.688 1.568.688zm-2.188-5.268a1.707 1.707 0 001.598 1.822 1.728 1.728 0 001.823-1.614l-1.71-.104-1.71-.104zm2.758-5.278a1.705 1.705 0 00-2.164-1.087 1.732 1.732 0 00-1.094 2.178l1.629-.545 1.629-.546zm-5.507-2.759c.617.718 1.7.794 2.417.17.718-.624.8-1.711.182-2.428l-1.3 1.129-1.299 1.129zm-1.38-5.99a1.712 1.712 0 00-2.41.266 1.723 1.723 0 00.25 2.419l1.08-1.342 1.08-1.342zm-6.203-.49c.74.59 1.818.463 2.41-.282a1.723 1.723 0 00-.27-2.418l-1.07 1.35-1.07 1.35zm-1.974-6.21a1.71 1.71 0 00-2.419.17 1.724 1.724 0 00.157 2.428l1.13-1.299 1.132-1.3zm-6.64-1.24a1.71 1.71 0 002.42-.17 1.725 1.725 0 00-.157-2.428l-1.131 1.3-1.132 1.298zm-1.991-6.423a1.71 1.71 0 00-2.423.091 1.725 1.725 0 00.078 2.432l1.172-1.261 1.173-1.262zm-6.49-1.491a1.71 1.71 0 002.425-.003 1.726 1.726 0 00.01-2.434l-1.217 1.218-1.218 1.219zm-1.412-6.523a1.708 1.708 0 00-2.42-.138 1.727 1.727 0 00-.15 2.43l1.285-1.146 1.285-1.146zm-6.26-2.31a1.706 1.706 0 002.39.398 1.73 1.73 0 00.409-2.401l-1.4 1.001-1.399 1.001zm.243-6.59a1.704 1.704 0 00-2.201-1.008 1.732 1.732 0 00-1.017 2.215l1.61-.603 1.608-.603zm-3.412-5.596a1.715 1.715 0 001.01 2.208 1.72 1.72 0 002.204-1.025l-1.607-.592-1.606-.59zm5.844-2.615a1.726 1.726 0 00.05-2.434 1.709 1.709 0 00-2.423-.038l1.187 1.235 1.186 1.236zm3.157-5.148a1.73 1.73 0 00-1.584 1.852c.07.947.891 1.655 1.836 1.58l-.127-1.716-.125-1.716zm4.309 4.375c.86.39 1.878.003 2.27-.864a1.717 1.717 0 00-.847-2.276l-.712 1.57-.711 1.57zm6.043-.568c-.802-.5-1.86-.25-2.362.558a1.72 1.72 0 00.543 2.369l.91-1.464.91-1.463zm2.566 6.077a1.71 1.71 0 002.416-.203 1.724 1.724 0 00-.19-2.426l-1.113 1.315-1.113 1.314zm6.956 1.555a1.71 1.71 0 00-2.421.131 1.725 1.725 0 00.118 2.43l1.151-1.28 1.152-1.281zm1.475 6.629a1.707 1.707 0 002.403.305 1.729 1.729 0 00.316-2.415l-1.36 1.055-1.36 1.055zm6.073 2.26a1.707 1.707 0 00-2.403-.305 1.729 1.729 0 00-.316 2.415l1.36-1.056 1.36-1.055zm.736 6.186a1.71 1.71 0 002.424.054 1.727 1.727 0 00.066-2.434l-1.245 1.19-1.245 1.19zm5.825 1.127a1.709 1.709 0 00-2.423-.043c-.685.66-.71 1.75-.056 2.434l1.24-1.195 1.24-1.196zm.835 5.77a1.71 1.71 0 002.424-.019 1.726 1.726 0 00-.006-2.434l-1.209 1.227-1.209 1.227zm5.645.693a1.71 1.71 0 00-2.423.067c-.655.69-.631 1.78.053 2.433l1.185-1.25 1.185-1.25zm.981 5.624a1.71 1.71 0 002.421-.128 1.724 1.724 0 00-.115-2.43l-1.153 1.279-1.153 1.28zm5.67.389a1.712 1.712 0 00-2.416.222 1.725 1.725 0 00.209 2.424l1.103-1.323 1.104-1.323zm-79.51 43.663l1.586.643v-.002l.002-.004a.228.228 0 00.005-.013l.019-.046.069-.173a84.371 84.371 0 001.108-3.037l-1.62-.553-1.62-.553a79.636 79.636 0 01-1.057 2.895l-.06.153-.015.037a.119.119 0 00-.004.009v.001l1.586.643zm3.137-9.674l1.657.431c.553-2.1 1.077-4.41 1.472-6.787l-1.69-.274-1.691-.275a72.119 72.119 0 01-1.405 6.474l1.657.431zm2.107-13.374l1.714.026a31.894 31.894 0 00-.119-3.579l-1.707.169-1.706.169a28.45 28.45 0 01.104 3.19l1.714.025zm-.112-3.384l1.707-.169a11.698 11.698 0 01.036-2.29l-1.704-.172-1.705-.173a15.143 15.143 0 00-.04 2.973l1.706-.169zm1.231-7.764l1.62.552a30.49 30.49 0 012.003-4.57l-1.505-.816-1.505-.815a33.966 33.966 0 00-2.234 5.097l1.621.552zm5.128-9.156l1.226 1.196a5.1 5.1 0 01.845-.728c.236-.153.33-.158.297-.154l-.19-1.71-.188-1.71c-1.265.149-2.377 1.043-3.216 1.91l1.226 1.196zm2.179-1.396l.2 1.709c.433-.054.98-.02 1.645.13l.381-1.68.382-1.68c-.921-.207-1.877-.302-2.808-.187l.2 1.708zm6.378 1.806l-.808 1.523c1.24.658 2.488 1.447 3.646 2.248l.977-1.42.977-1.42c-1.23-.85-2.593-1.714-3.984-2.453l-.808 1.522zm7.399 5.042l-1.08 1.342a57.218 57.218 0 011.54 1.294 7.85 7.85 0 01.1.089l.004.003v.001l1.147-1.286 1.145-1.286v-.002l-.003-.001-.007-.007-.026-.023a38.397 38.397 0 00-.45-.392 59.393 59.393 0 00-1.29-1.074l-1.08 1.342zm1.71 1.443l-1.319 1.105 1.814 2.187 1.32-1.106 1.32-1.105-1.815-2.187-1.32 1.106zm5.443 6.56l-1.32 1.106 1.815 2.187 1.32-1.106 1.32-1.106-1.815-2.187-1.32 1.106zm1.815 2.187l-1.43.957v.002l.003.003.007.01.024.037.091.135c.08.116.195.285.343.497a65.08 65.08 0 001.265 1.746l1.372-1.04 1.371-1.039a63.217 63.217 0 01-1.514-2.112l-.08-.118-.018-.028-.004-.006v-.001l-1.43.957zm5.327 6.806l-1.274 1.159c1.297 1.438 2.765 2.914 4.312 4.189l1.092-1.333 1.092-1.332c-1.379-1.136-2.724-2.484-3.949-3.842l-1.273 1.159zm9.046 6.956l-.542 1.636c1.157.38 2.383.56 3.617.382l-.235-1.703-.234-1.704c-.589.085-1.274.013-2.065-.247l-.541 1.636zm2.84.315l.235 1.703a12.12 12.12 0 002.597-.675l-.603-1.608-.604-1.608a8.62 8.62 0 01-1.86.484l.235 1.704zm6.068-3.095l1.207 1.217a14.233 14.233 0 002.948-4.338l-1.568-.688-1.567-.688a10.745 10.745 0 01-2.226 3.281l1.206 1.216zm3.678-8.285l1.71.104c.056-.856.04-1.727-.053-2.605l-1.704.191-1.705.192c.073.68.085 1.354.041 2.014l1.71.104zm-.047-2.31l1.704-.191a13.95 13.95 0 00-.61-2.881l-1.63.546-1.628.545a10.5 10.5 0 01.46 2.173l1.704-.192zm-3.113-6.96l1.3-1.129c-1.175-1.365-2.553-2.577-3.98-3.731l-1.08 1.342-1.08 1.342c1.37 1.108 2.563 2.17 3.54 3.305l1.3-1.129zm-7.813-6.7l1.07-1.35a63.078 63.078 0 01-1.934-1.6l-1.122 1.307-1.122 1.307c.682.59 1.366 1.15 2.038 1.685l1.07-1.35zm-1.986-1.643l1.13-1.3-2.188-1.918-1.131 1.299-1.131 1.299 2.188 1.919 1.132-1.3zm-6.566-5.757l1.131-1.299-2.189-1.919-1.131 1.3-1.131 1.299 2.188 1.918 1.132-1.299zm-2.189-1.919l1.155-1.277c-.725-.66-1.421-1.303-2.09-1.928l-1.171 1.261-1.173 1.262c.68.637 1.388 1.29 2.124 1.96l1.155-1.278zm-6.206-5.915l1.217-1.218a96.952 96.952 0 01-3.847-4.086l-1.285 1.146-1.285 1.146a100.253 100.253 0 003.983 4.23l1.217-1.218zm-7.49-8.616l1.399-1.001c-1.296-1.833-2.097-3.337-2.556-4.586l-1.609.603-1.608.603c.592 1.613 1.562 3.386 2.974 5.382l1.4-1zM51.41 62.122l1.607.592c.256-.693.655-1.363 1.177-2.088l-1.387-1.004-1.387-1.004c-.615.853-1.209 1.81-1.617 2.913l1.607.591zm1.397-2.5l1.387 1.004c.5-.694.984-1.257 1.453-1.71L54.46 57.68l-1.187-1.236a16.154 16.154 0 00-1.854 2.174l1.387 1.004zm6.122-4.138l.127 1.716c1.156-.092 2.47.224 4.057.943l.711-1.57.712-1.57c-1.839-.832-3.763-1.39-5.732-1.235l.125 1.716zm9.317 3.554l-.91 1.464c.69.43 1.395.88 2.132 1.347l.921-1.456.922-1.456c-.728-.462-1.45-.923-2.155-1.362l-.91 1.463zm2.143 1.355l-.93 1.45c.38.245 1.19.895 2.263 1.81l1.113-1.315 1.114-1.315c-1.035-.882-2.022-1.69-2.629-2.08l-.93 1.45zm7.137 6.095l-1.151 1.28a387.21 387.21 0 012.126 1.94l.127.118.033.03.008.007.002.002 1.165-1.27 1.163-1.269-.003-.003a.505.505 0 01-.008-.008l-.034-.03a95.028 95.028 0 00-.613-.564 400.64 400.64 0 00-1.663-1.514l-1.152 1.28zm2.31 2.108l-1.36 1.055 1.677 2.185 1.36-1.055 1.36-1.055-1.678-2.185-1.36 1.055zm5.03 6.554l-1.36 1.056 1.677 2.185 1.36-1.056 1.36-1.055-1.677-2.185-1.36 1.055zm1.677 2.185l-1.246 1.189.002.002.006.007.024.025.093.098.348.367 1.192 1.26 1.245-1.19 1.245-1.19-1.191-1.258-.347-.366-.093-.098-.023-.025a.576.576 0 01-.007-.007l-.001-.002-1.247 1.188zm5.005 5.27l-1.24 1.195c.729.762 1.357 1.415 1.7 1.763l1.22-1.217 1.219-1.216c-.32-.323-.927-.954-1.66-1.72l-1.24 1.195zm1.68 1.741l-1.22 1.216a275.39 275.39 0 001.614 1.618l1.21-1.227 1.208-1.227a301.36 301.36 0 01-1.593-1.596l-1.22 1.216zm4.854 4.776l-1.185 1.25a179.537 179.537 0 003.351 3.124l1.153-1.279 1.153-1.28a181.166 181.166 0 01-3.287-3.065l-1.185 1.25zm6.732 6.086l-1.103 1.323a70.378 70.378 0 001.804 1.466l1.059-1.36 1.058-1.358a66.97 66.97 0 01-1.714-1.394l-1.104 1.323z" fill="#fff"/></svg>