<svg width="184" height="151" fill="none" xmlns="http://www.w3.org/2000/svg"><path d="M35.623 120.35c-.921 2.5-4.4 12.997-5.668 15.98-1.267 2.982.04 6.404 2.782 8.398 1.95 1.418 5.706 1.73 7.497-.661 1.85-2.469 4.977-12.151 6.37-16.46l.083-.26c.331-1.024.573-1.772.695-2.103 1.245-3.349 1.452-6.949 1.426-10.537a149.05 149.05 0 00-.052-2.764c-.095-4.264-.174-8.656 1.36-11.282.94-1.567 1.714-1.664 2.005-1.691 1.396-.162 4.015.864 6.76 3.567.096.091.192.186.29.285 1.397 1.4 3.136 3.619 5.006 6.003l.626.797.032.042.005.005a452.871 452.871 0 002.521 3.215c5.435 6.846 11.536 13.746 18.742 16.191 5.304 1.784 10.56.559 14.425-3.355 5.339-5.441 6.809-14.854 5.121-20.462-1.815-6.044-7.373-11.02-15.798-18.226l-1.247-1.066-7.872-6.828a96.398 96.398 0 01-.512-.456c-9.237-8.285-11.513-13.471-11.676-15.1.793-.384 3.571-.25 5.996 1.269 1.17.832 5.34 4.971 9.641 9.288.822.824 1.647 1.655 2.458 2.47l.027.027c.483.486.96.967 1.43 1.437a2178.5 2178.5 0 005.086 5.13c9.014 9.055 15.297 15.097 18.726 17.09 2.781 1.609 5.9 1.902 8.817.82 4.921-1.811 8.308-7.231 10.187-11.2 3.98 2.608 4.669 3.205 8.69 3.57 5.283.465 9.642-2.382 9.642-2.382 9.158-5.858 7.272-11.837 3.269-30.77-3.187-15.275-9.93-24.44-9.93-24.44s-4.691-2.775-.809-8.546c0 0 5.392-6.711 11.167-13.513 2.235-2.633-.468-5.474-2.813-7.88-3.652-3.75-5.486-2.636-6.872-1.22-1.386 1.417-7.272 8-16.045 17.082 0 0-13.138-6.674-17.8-6.56-.613-.003-17.175-.096-23.856 14.755-3.853 8.413-3.957 26.605 11.743 29.087.096.016.192.03.29.044 3.83.587 7.867 1.497 7.837 6.905 0 0 .376.667 1.122 1.794 1.56 2.358 4.734 6.733 9.458 11.245l4.308 3.264c-.949 2.31-2.33 4.728-3.377 5.902-3.058-2.372-9.688-8.915-15.405-14.645a2616.015 2616.015 0 01-3.635-3.653L96.82 68.87a1891.11 1891.11 0 00-4.276-4.32c-6.513-6.556-9.681-9.579-11.553-10.77-7.09-4.452-17.455-5.276-22.76 2.014-3.332 4.579-5.926 14.84 13.625 32.483.256.231.517.464.78.698l8.032 6.958.826.707c5.945 5.089 11.385 9.842 12.135 12.306.426 1.392-.238 5.628-2.016 7.435-.468.479-.78.666-1.78.329-4.288-1.454-9.719-8.051-14.025-13.534-.42-.535-.829-1.059-1.225-1.566l-.032-.041-.341-.438c-2.346-3.011-4.568-5.864-6.665-7.91l-.044-.044c-5.31-5.214-11.54-7.813-17.09-7.118-3.197.381-7.71 2.05-11.045 7.671-3.453 5.832-3.325 12.459-3.189 18.322l.004.24c.053 3.109.108 6.308-.556 8.059z" fill="#59AFE1"/><path d="M36.407 137.547s6.177-15.193 5.133-26.431c-.643-6.924 5.37-17.946 8.538-18.316 5.495-.677 15.487 8.29 15.487 8.29l7.257 8.747s9.99 15.117 17.214 14.077c6.1-.878 10.404-7.039 9.699-13.689-.765-7.21-7.007-10.201-12.913-15.304l-8.754-7.675C58.643 69.56 59.52 64.184 62.807 59.62c5.234-7.266 10.544-3.698 17.582.771 1.858 1.197 9.446 8.203 9.446 8.203l6.708 8.74s5.419 5.732 6.685 7.01c5.682 5.742 10.308 9.913 13.345 12.292" stroke="#fff" stroke-width="3.435" stroke-linecap="round" stroke-linejoin="round" stroke-dasharray="5.73 5.73"/></svg>