<svg width="183" height="151" fill="none" xmlns="http://www.w3.org/2000/svg"><path d="M35.62 120.953c-.921 2.513-4.4 13.062-5.667 16.06-1.268 2.997.04 6.436 2.782 8.44 1.95 1.425 5.705 1.738 7.496-.664 1.85-2.481 4.977-12.212 6.369-16.543l.084-.261c.33-1.029.572-1.781.695-2.113 1.245-3.367 1.451-6.984 1.426-10.59-.007-.928-.03-1.856-.053-2.778-.095-4.286-.174-8.699 1.36-11.339.94-1.574 1.714-1.672 2.004-1.7 1.397-.163 4.015.869 6.76 3.586.096.091.193.186.291.286 1.396 1.408 3.136 3.637 5.005 6.033l.626.801.032.042.005.006a472.986 472.986 0 002.52 3.231c5.435 6.88 11.536 13.814 18.742 16.271 5.303 1.793 10.559.562 14.423-3.372 5.339-5.468 6.808-14.928 5.121-20.563-1.815-6.075-7.373-11.076-15.797-18.319l-1.247-1.07-7.871-6.863a99.68 99.68 0 01-.512-.458C70.977 70.749 68.701 65.537 68.54 63.9c.793-.386 3.57-.25 5.995 1.275 1.17.836 5.34 4.996 9.64 9.334a3199.22 3199.22 0 013.914 3.954c1.782 1.811 3.478 3.532 5.086 5.156 9.014 9.1 15.297 15.172 18.725 17.175 2.781 1.617 5.9 1.912 8.817.824 4.921-1.82 8.307-7.267 10.186-11.256 3.979 2.622 4.669 3.222 8.689 3.588 5.282.467 9.641-2.393 9.641-2.393 9.158-5.888 7.272-11.897 3.269-30.925-3.186-15.351-9.929-24.562-9.929-24.562s-4.691-2.79-.809-8.589c0 0 5.391-6.745 11.166-13.581 2.235-2.646-.468-5.502-2.812-7.92-3.652-3.768-5.486-2.648-6.872-1.225-1.386 1.424-7.271 8.04-16.044 17.167 0 0-13.137-6.707-17.799-6.592-.613-.004-17.174-.097-23.854 14.828-3.852 8.455-3.957 26.739 11.742 29.233.096.016.193.03.29.044 3.83.59 7.866 1.505 7.837 6.94 0 0 .376.67 1.122 1.803 1.559 2.37 4.734 6.767 9.457 11.301l4.307 3.28c-.949 2.322-2.329 4.753-3.376 5.932-3.058-2.384-9.687-8.96-15.404-14.718-1.272-1.282-2.5-2.523-3.632-3.669l-.002-.002-1.077-1.09a1931.492 1931.492 0 00-4.276-4.34c-6.513-6.59-9.68-9.627-11.552-10.825-7.09-4.474-17.454-5.302-22.76 2.025-3.33 4.601-5.924 14.913 13.625 32.645.257.233.517.466.781.702l8.03 6.992.827.71c5.944 5.116 11.383 9.892 12.134 12.368.426 1.4-.239 5.657-2.016 7.473-.468.482-.78.669-1.78.331-4.288-1.461-9.718-8.091-14.024-13.602-.42-.537-.829-1.064-1.225-1.574l-.032-.041-.341-.441c-2.345-3.026-4.568-5.893-6.664-7.95l-.044-.043c-5.31-5.24-11.54-7.852-17.088-7.153-3.198.382-7.71 2.06-11.045 7.709-3.453 5.861-3.325 12.521-3.189 18.414l.004.24c.053 3.125.108 6.34-.556 8.1z" fill="#FEA7C1"/><path d="M36.404 138.237s6.176-15.269 5.133-26.564c-.643-6.958 5.37-18.035 8.537-18.408 5.495-.68 15.486 8.332 15.486 8.332l7.257 8.791s9.988 15.193 17.212 14.148c6.1-.883 10.403-7.075 9.698-13.758-.765-7.246-7.007-10.252-12.912-15.38l-8.753-7.714C58.639 69.909 59.515 64.507 62.802 59.92c5.234-7.302 10.543-3.716 17.58.776 1.858 1.202 9.446 8.244 9.446 8.244l6.707 8.783s5.419 5.76 6.684 7.046c5.682 5.77 10.308 9.962 13.345 12.353" stroke="#fff" stroke-width="3.435" stroke-linecap="round" stroke-linejoin="round" stroke-dasharray="5.73 5.73"/></svg>