<svg width="36" height="36" fill="none" xmlns="http://www.w3.org/2000/svg"><rect width="36" height="36" rx="12" fill="#E2001A"/><g filter="url(#filter0_d_420_1554)" clip-path="url(#clip0_420_1554)"><path d="M23 8H13a5 5 0 00-5 5v10a5 5 0 005 5h10a5 5 0 005-5V13a5 5 0 00-5-5zm-9 5h6a1 1 0 010 2h-6a1 1 0 010-2zm4 10h-4a1 1 0 010-2h4a1 1 0 010 2zm4-4h-8a1 1 0 010-2h8a1 1 0 010 2z" fill="#fff"/></g><defs><clipPath id="clip0_420_1554"><path fill="#fff" transform="translate(6 6)" d="M0 0h24v24H0z"/></clipPath><filter id="filter0_d_420_1554" x="4" y="4" width="28" height="28" filterUnits="userSpaceOnUse" color-interpolation-filters="sRGB"><feFlood flood-opacity="0" result="BackgroundImageFix"/><feColorMatrix in="SourceAlpha" values="0 0 0 0 0 0 0 0 0 0 0 0 0 0 0 0 0 0 127 0" result="hardAlpha"/><feOffset/><feGaussianBlur stdDeviation="2"/><feComposite in2="hardAlpha" operator="out"/><feColorMatrix values="0 0 0 0 1 0 0 0 0 1 0 0 0 0 1 0 0 0 0.58 0"/><feBlend in2="BackgroundImageFix" result="effect1_dropShadow_420_1554"/><feBlend in="SourceGraphic" in2="effect1_dropShadow_420_1554" result="shape"/></filter></defs></svg>