<svg width="50" height="50" fill="none" xmlns="http://www.w3.org/2000/svg"><rect width="50" height="50" rx="12" fill="#E2001A"/><g filter="url(#filter0_d_420_1544)" clip-path="url(#clip0_420_1544)"><path d="M31.667 11.667H18.333a6.667 6.667 0 00-6.666 6.667v13.333a6.667 6.667 0 006.666 6.667h13.334a6.666 6.666 0 006.666-6.667V18.334a6.667 6.667 0 00-6.666-6.667zm-12 6.667h8a1.333 1.333 0 110 2.666h-8a1.333 1.333 0 010-2.666zM25 31.667h-5.333a1.333 1.333 0 010-2.667H25a1.333 1.333 0 010 2.667zm5.333-5.333H19.667a1.333 1.333 0 110-2.667h10.666a1.334 1.334 0 010 2.667z" fill="#fff"/></g><defs><clipPath id="clip0_420_1544"><path fill="#fff" transform="translate(9 9)" d="M0 0h32v32H0z"/></clipPath><filter id="filter0_d_420_1544" x="7.667" y="7.667" width="34.667" height="34.667" filterUnits="userSpaceOnUse" color-interpolation-filters="sRGB"><feFlood flood-opacity="0" result="BackgroundImageFix"/><feColorMatrix in="SourceAlpha" values="0 0 0 0 0 0 0 0 0 0 0 0 0 0 0 0 0 0 127 0" result="hardAlpha"/><feOffset/><feGaussianBlur stdDeviation="2"/><feComposite in2="hardAlpha" operator="out"/><feColorMatrix values="0 0 0 0 1 0 0 0 0 1 0 0 0 0 1 0 0 0 0.58 0"/><feBlend in2="BackgroundImageFix" result="effect1_dropShadow_420_1544"/><feBlend in="SourceGraphic" in2="effect1_dropShadow_420_1544" result="shape"/></filter></defs></svg>