<svg width="50" height="50" fill="none" xmlns="http://www.w3.org/2000/svg"><rect width="50" height="50" rx="12" fill="#E2001A"/><path d="M30.417 14.167H19.583a5.417 5.417 0 00-5.416 5.417v10.833a5.417 5.417 0 005.416 5.417h10.834a5.417 5.417 0 005.416-5.417V19.584a5.417 5.417 0 00-5.416-5.417zm-9.75 5.417h6.5a1.083 1.083 0 110 2.166h-6.5a1.083 1.083 0 110-2.166zM25 30.417h-4.333a1.083 1.083 0 110-2.167H25a1.083 1.083 0 010 2.167zm4.333-4.333h-8.666a1.084 1.084 0 010-2.167h8.666a1.083 1.083 0 110 2.167z" fill="#fff"/></svg>