<svg width="195" height="159" fill="none" xmlns="http://www.w3.org/2000/svg"><path d="M193.21 29.491c.977.166 1.629.996 1.629 1.825.163 3.484.163 11.779-4.072 13.438-1.805.715-4.398 1.351-7.203 2.04-6.306 1.548-13.684 3.359-15.6 6.918l-.312.565c-2.77 4.997-4.772 8.61-5.714 23.324a70.17 70.17 0 00-.095 1.825l-.001.001c-.164 3.773-.298 6.862-4.954 16.92-5.538 11.613.963 28.202 1.126 33.179.163 4.811 3.483 16.092 3.483 16.092s2.28-.332 4.235 1.659c.814.663 1.303 1.493 1.792 2.322.814 1.327 0 2.986-1.466 2.986-1.738.629-6.054 1.734-9.416 1.123s-4.919-7.759-5.278-11.256c-.667-3.199-2.913-7.539-4.655-12.272-3.989-7.922-7.574-12.93-7.574-12.93-1.097-1.366-1.465 7.114-1.716 12.93-.085 1.957-.157 3.612-.239 4.489-.326 3.483.326 6.967 1.955 10.617.431 2.322 2.091 7.001 5.281 7.133 3.191.133 4.867 3.042 5.306 4.479-1.792.996-14.496 1.328-17.754-.829-2.127-1.408-1.893-4.089-1.701-6.289.102-1.169.192-2.202-.091-2.835-.196-.44-.42-.715-.654-1.004h-.001c-.739-.909-1.58-1.942-1.951-8.618-.058-1.053-.114-2.114-.171-3.172v-.009c-.412-7.776-.819-15.46-2.109-19.547-1.397-3.983-2.674-3.94-5.474-3.848-.465.016-.973.033-1.53.033-.606 0-1.333.044-2.193.095-4.689.283-13.325.804-27.776-4.243-2.606-1.161-5.701.83-7.33 3.982-1.629 3.152-6.026 9.124-11.238 14.101-5.212 4.811-4.072 17.916-2.118 19.078 1.955 1.161 6.352 3.815 7.33 4.645.977.995 1.303 2.986 0 3.484-1.303.331-11.89 1.659-14.17-.664-1.856-1.754-2.094-6.803-2.294-11.036-.045-.97-.09-1.898-.15-2.733-.065-.894-.15-1.874-.236-2.884-.35-4.052-.741-8.595-.09-10.056.22-.493.607-.938 1.055-1.453 1.207-1.388 2.854-3.282 2.854-8.003 0-6.304-1.465-4.313-3.583-.829-3.42 5.806-6.84 8.626-13.682 14.266-6.84 5.641-8.632 9.456-8.144 15.429l.326 3.815c.163 1.161.977 2.323 2.118 2.82 1.465.498 3.42 1.493 4.56 2.655 2.118 2.156 1.466 3.318.652 3.815-2.606 1.659-6.678 2.323-12.216.83-5.7-1.493-5.05-23.723-3.583-27.539 1.602-4.225 2.714-4.837 3.808-5.44.796-.438 1.583-.872 2.544-2.689 1.09-2.219 1.187-3.955 1.313-6.202.12-2.121.265-4.696 1.293-8.562.538-2.145.915-4.817 1.329-7.747 1.09-7.722 2.434-17.234 7.63-23.607 1.79-2.323 1.79-3.816-1.955-4.645-1.008-.28-4.581-.495-9.276-.776-11.994-.72-31.312-1.879-33.887-5.694-3.104-4.598-.831-4.467 16.132-3.487h.002c2.62.151 5.592.323 8.95.5 27.914 1.598 29.706 1.196 40.414-1.205l1.282-.287c4.992-1.045 10.788-.92 16.738-.792 8.22.178 16.732.361 23.819-2.526 5.723-2.332 9.552-3.79 12.34-4.852 3.162-1.203 4.985-1.898 6.716-2.78 3.258-1.492 8.47-5.142 12.379-9.953.168-.2.521-.725 1.019-1.469 2.395-3.57 8.164-12.174 13.151-13.96 0 0 7.819-4.478 15.148-1.824 3.185 1.153 4.432 2.37 5.493 3.403 1.38 1.345 2.443 2.382 7.049 2.57 5.538.165 9.447.829 11.401 1.16z" fill="#59AFE1"/><path d="M157.788 31.068c-6.495 4.967-15.282 23.305-36.295 29.418-21.434 6.235-30.171 4.223-42.408 4.585-8.053.237-15.664 4.202-33.62 2.674L9.55 64.689" stroke="#fff" stroke-width="3.821" stroke-linecap="round"/><path d="M163.714 27.196c2.464-.062 3.495 0 7.814 1.717 5.232 2.08 13.877 4.587 13.255 9.17-.621 4.581-10.26 7.71-13.255 7.845-3.937.177-6.149-.474-10.653-2.339a14.104 14.104 0 01-5.276-4.456c-.753-.94-1.37-3.272-1.584-4.32-.796-5.9 7.234-7.555 9.699-7.617z" fill="#fff"/><path d="M115.38 62.78c-4.949 6.447-11.952 24.409-6.31 33.62m-5.916-31.329c-4.973 6.571-10.258 22.705-4.59 32.093m-6.871-32.093c-4.748 6.607-9.995 22.654-4.582 32.093m49.282-38.97c5.349 10.698 4.754 46.824 9.551 55.78 5.731 10.697 9.17 29.036 11.462 34.767.848 2.119 6.495 1.146 6.495 1.146M65.043 68.891L45.176 113.21l-11.75 20.479a12.222 12.222 0 00-1.622 6.084v11.992a3.821 3.821 0 004.536 3.753l3.488-.665" stroke="#fff" stroke-width="3.821" stroke-linecap="round"/></svg>