<svg width="139" height="125" fill="none" xmlns="http://www.w3.org/2000/svg"><path d="M73.432 123.027c2.187-33.684 4.188-31.888 5.514-34.406 5.89-11.185 37.548-11.97 49.993-17.187 9.815-4.116 9.812-22.61 9.374-30.236-.114-1.98-1.491-3.616-3.352-3.98-4.194-.82-12.547-2.148-24.292-2.588-17.422-.652-11.2-7.173-26.756-13.044-4.71-1.777-9.535-2.12-13.973-1.732 0 0-15.135-20.62-18.378-19.487C48.319 1.5 49.4 3.766 49.4 3.766c-3.187-3.592-4.841-4.33-6.172-3.4-3.244 2.267 0 23.796 0 30.595C32.729 40.372 22.86 57.374 21.319 59.44 12.84 70.021 12.302 73.33 5.39 81.546c-6.91 8.217-7.958 14.027 1.497 26.954 15.929 21.779 66.545 14.527 66.545 14.527z" fill="#59AFE1"/><g clip-path="url(#clip0_183_2789)"><path d="M49.85 64.573A5.161 5.161 0 1145.985 55a5.161 5.161 0 013.863 9.573zm8.763-7.56a11.46 11.46 0 00-.44-1.365 12.611 12.611 0 00-.647-1.329l1.986-3.393a.744.744 0 00-.19-.941l-4.644-3.628a.725.725 0 00-.955.036l-2.853 2.742c-.926-.247-1.852-.414-2.852-.408l-1.968-3.42a.746.746 0 00-.915-.298l-5.47 2.207a.745.745 0 00-.452.85l.956 3.828c-.723.69-1.274 1.453-1.77 2.273l-3.956.007a.725.725 0 00-.713.637l-.826 5.835a.727.727 0 00.517.809l3.785 1.064c.133.487.274.955.456 1.406.182.452.4.873.631 1.288l-1.97 3.434a.727.727 0 00.19.942l4.644 3.627c.286.235.699.195.956-.035l2.847-2.755c.932.26 1.858.427 2.857.42l1.968 3.42a.746.746 0 00.916.299l5.47-2.208c.342-.138.53-.5.452-.85l-.957-3.828a10.74 10.74 0 001.765-2.286l3.962.007c.345-.012.67-.27.713-.637l.825-5.835a.744.744 0 00-.517-.81l-3.801-1.105z" fill="#fff"/></g><g clip-path="url(#clip1_183_2789)"><path d="M72.678 49.138a4.044 4.044 0 11-3.153-7.448 4.044 4.044 0 013.153 7.448zm6.766-6.039a8.987 8.987 0 00-.362-1.063 9.861 9.861 0 00-.525-1.033l1.51-2.685a.583.583 0 00-.16-.735l-3.686-2.78a.568.568 0 00-.748.04l-2.2 2.186c-.728-.18-1.456-.3-2.239-.282l-1.587-2.653a.584.584 0 00-.721-.221l-4.256 1.801a.584.584 0 00-.343.672l.8 2.987c-.558.55-.98 1.154-1.357 1.803l-3.1.058a.568.568 0 00-.55.509l-.57 4.582a.57.57 0 00.416.627l2.98.784c.11.38.227.744.376 1.096.148.35.324.678.511 1l-1.497 2.717a.57.57 0 00.16.735l3.687 2.78a.58.58 0 00.748-.04l2.194-2.197c.734.192 1.461.31 2.244.293l1.588 2.653c.15.237.455.334.72.221l4.257-1.801a.584.584 0 00.343-.672l-.8-2.987a8.398 8.398 0 001.352-1.814l3.104-.047a.58.58 0 00.55-.509l.57-4.582a.583.583 0 00-.416-.627l-2.993-.816z" fill="#fff"/></g><g clip-path="url(#clip2_183_2789)"><path d="M54.39 39.029a3.102 3.102 0 11-2.593-5.637 3.102 3.102 0 012.593 5.636zm5.046-4.79a6.887 6.887 0 00-.303-.807 7.559 7.559 0 00-.427-.78l1.096-2.094a.447.447 0 00-.14-.56l-2.893-2.045a.436.436 0 00-.573.05l-1.634 1.727c-.563-.122-1.124-.195-1.724-.163l-1.28-1.997a.45.45 0 00-.558-.153l-3.22 1.482a.448.448 0 00-.248.523l.684 2.271c-.415.435-.724.909-.998 1.415l-2.376.117a.436.436 0 00-.41.403l-.328 3.527a.437.437 0 00.334.471l2.303.531c.093.289.191.566.314.831.122.266.265.513.415.756l-1.084 2.118a.437.437 0 00.14.56l2.893 2.045a.445.445 0 00.573-.049l1.63-1.736c.567.13 1.128.204 1.728.172l1.28 1.996a.448.448 0 00.558.154l3.22-1.482a.448.448 0 00.248-.524l-.684-2.27c.411-.443.724-.91.994-1.424l2.38-.109a.445.445 0 00.409-.403l.329-3.527a.447.447 0 00-.334-.47l-2.314-.556z" fill="#fff"/></g><defs><clipPath id="clip0_183_2789"><path fill="#fff" transform="matrix(.9067 -.42178 .33041 .94384 24.887 57.16)" d="M0 0h36.195v40.081H0z"/></clipPath><clipPath id="clip1_183_2789"><path fill="#fff" transform="matrix(.89871 -.43854 .34471 .9387 52.929 43.384)" d="M0 0h28.414v31.358H0z"/></clipPath><clipPath id="clip2_183_2789"><path fill="#fff" transform="matrix(.88347 -.4685 .37065 .92877 38.986 35.248)" d="M0 0h21.875v23.986H0z"/></clipPath></defs></svg>