<svg width="162" height="153" fill="none" xmlns="http://www.w3.org/2000/svg"><path d="M81.846 70.95c21.188 0 41.325-1.987 54.234-5.268-1.593-3.571-5.399-6.267-10.059-6.966-.608-1.97-2.778-3.429-5.369-3.429-.271 0-.533.021-.794.053 0-.018.003-.035.003-.053 0-2.153-2.127-3.899-4.752-3.899a5.57 5.57 0 00-2.181.438c-.95-3.953-5.195-6.933-10.292-6.933-2.618 0-5.008.786-6.847 2.089-.981-.65-2.21-1.05-3.552-1.102-1.984-1.422-4.578-2.285-7.42-2.285-1.887 0-3.663.38-5.225 1.052-1.676-1.067-3.778-1.704-6.061-1.704-4.256 0-7.884 2.205-9.282 5.296a7.807 7.807 0 00-2.004-.26c-2.233 0-4.201.92-5.38 2.323-1.558-.752-3.373-1.185-5.31-1.185-4.916 0-9.042 2.772-10.18 6.516-3.275.201-5.859 2.44-5.859 5.179 0 .02.003.04.003.061a9.003 9.003 0 00-.993-.061c-3.543 0-6.498 2.063-7.178 4.805 12.897 3.32 33.165 5.333 54.498 5.333z" fill="#59AFE1"/><path d="M155.33 99.5l-9.153-30.138a2.393 2.393 0 00-2.286-1.705h-1.3a2.38 2.38 0 00-.73.115c-12.993 4.193-35.478 6.699-60.147 6.699-24.668 0-47.154-2.505-60.15-6.7a2.369 2.369 0 00-.729-.116h-1.3a2.395 2.395 0 00-2.287 1.706l-9.15 30.138a5.633 5.633 0 00-.52 2.338c0 5.366 7.503 9.487 22.936 12.602 13.7 2.764 31.883 4.287 51.2 4.287 19.315 0 37.499-1.524 51.199-4.287 15.433-3.115 22.936-7.236 22.936-12.602 0-.793-.173-1.579-.519-2.338z" fill="#59AFE1"/><ellipse cx="72.581" cy="52.827" rx="5.742" ry="6.38" fill="#fff"/><rect x="101.953" y="54.378" width="10.525" height="11.148" rx="2.266" transform="rotate(30.503 101.953 54.378)" fill="#fff"/><rect x="49.846" y="60.31" width="6.385" height="7.297" rx="2.266" transform="rotate(-35.048 49.846 60.31)" fill="#fff"/><ellipse cx="82.133" cy="63.189" rx="2.832" ry="3.147" fill="#fff"/><circle cx="90.063" cy="51.545" r="2.832" fill="#fff"/></svg>