<svg width="161" height="153" fill="none" xmlns="http://www.w3.org/2000/svg"><path d="M81.507 71.095c21.1 0 41.153-1.99 54.008-5.279-1.585-3.578-5.376-6.28-10.016-6.98-.606-1.973-2.767-3.436-5.347-3.436-.27 0-.531.021-.791.053 0-.018.003-.035.003-.053 0-2.157-2.118-3.907-4.733-3.907-.783 0-1.521.16-2.171.439-.946-3.96-5.174-6.947-10.25-6.947-2.606 0-4.987.788-6.818 2.093-.977-.65-2.2-1.051-3.537-1.104-1.976-1.425-4.56-2.29-7.39-2.29-1.878 0-3.648.382-5.203 1.054-1.669-1.069-3.762-1.707-6.036-1.707-4.238 0-7.852 2.209-9.244 5.306-.63-.168-1.3-.26-1.995-.26-2.224 0-4.184.923-5.357 2.328-1.552-.754-3.36-1.188-5.289-1.188-4.895 0-9.004 2.778-10.138 6.53-3.261.201-5.834 2.444-5.834 5.19l.003.06a8.905 8.905 0 00-.99-.06c-3.527 0-6.47 2.067-7.148 4.814 12.844 3.326 33.028 5.344 54.273 5.344z" fill="#FEA7C1"/><path d="M154.686 99.702l-9.115-30.198a2.385 2.385 0 00-2.276-1.709H142c-.247 0-.492.039-.727.115-12.939 4.202-35.331 6.713-59.898 6.713-24.566 0-46.958-2.51-59.9-6.714a2.345 2.345 0 00-.726-.116h-1.295c-1.047 0-1.97.694-2.277 1.71l-9.113 30.2a5.674 5.674 0 00-.517 2.342c0 5.377 7.471 9.507 22.84 12.628 13.644 2.77 31.751 4.296 50.988 4.296 19.235 0 37.344-1.528 50.987-4.296 15.37-3.121 22.841-7.251 22.841-12.628 0-.794-.173-1.583-.517-2.343z" fill="#FEA7C1"/><ellipse cx="72.581" cy="52.827" rx="5.742" ry="6.38" fill="#fff"/><rect x="101.953" y="54.377" width="10.525" height="11.148" rx="2.266" transform="rotate(30.503 101.953 54.377)" fill="#fff"/><rect x="49.846" y="60.31" width="6.385" height="7.297" rx="2.266" transform="rotate(-35.048 49.846 60.31)" fill="#fff"/><ellipse cx="82.133" cy="63.189" rx="2.832" ry="3.147" fill="#fff"/><circle cx="90.063" cy="51.545" r="2.832" fill="#fff"/></svg>