<svg width="36" height="36" fill="none" xmlns="http://www.w3.org/2000/svg"><circle cx="18" cy="18" r="18" fill="#E2001A"/><path d="M23.143 14.904l-3.222-1.975a95.881 95.881 0 00-2.002-1.176V24.26l1.882-1.113c.7-.412 2.232-1.341 3.342-2.022a3.76 3.76 0 001.306-1.337 3.569 3.569 0 00.474-1.774c0-.62-.163-1.23-.474-1.773a3.76 3.76 0 00-1.306-1.337z" fill="#F6F6F6"/><path d="M16.26 10.832a3.461 3.461 0 00-1.711-.447 3.495 3.495 0 00-2.377.91 3.166 3.166 0 00-1.035 2.231c-.06 1.504-.06 3.018-.06 4.474 0 1.457 0 2.98.07 4.484.026.84.396 1.639 1.032 2.224.635.585 1.486.91 2.37.908.6-.001 1.19-.152 1.71-.438l1.821-1.01V11.842l-1.82-1.009z" fill="#fff"/></svg>