<svg width="50" height="50" fill="none" xmlns="http://www.w3.org/2000/svg"><circle cx="25" cy="25" r="25" fill="#E2001A"/><path d="M32.43 20.528l-4.655-2.853a137.842 137.842 0 00-2.891-1.698v18.066l2.717-1.608a423.346 423.346 0 004.829-2.921 5.43 5.43 0 001.885-1.931c.45-.786.685-1.667.685-2.562 0-.896-.236-1.777-.685-2.562a5.432 5.432 0 00-1.885-1.931z" fill="#F6F6F6"/><path d="M22.486 14.646A5.001 5.001 0 0020.015 14a5.049 5.049 0 00-3.434 1.316 4.573 4.573 0 00-1.494 3.222C15 20.71 15 22.896 15 25s0 4.304.101 6.476a4.56 4.56 0 001.49 3.212A5.034 5.034 0 0020.015 36c.868 0 1.72-.219 2.471-.633l2.63-1.457V16.104l-2.63-1.458z" fill="#fff"/></svg>