<svg width="50" height="50" fill="none" xmlns="http://www.w3.org/2000/svg"><circle cx="25" cy="25" r="25" fill="#E2001A"/><path d="M35.144 19.495l-5.729-3.51a170.034 170.034 0 00-3.558-2.091v22.235l3.345-1.978a519.985 519.985 0 005.942-3.596 6.684 6.684 0 002.321-2.377 6.346 6.346 0 00.843-3.153c0-1.102-.29-2.186-.843-3.153a6.685 6.685 0 00-2.32-2.377z" fill="#F6F6F6"/><path d="M22.906 12.256a6.152 6.152 0 00-3.042-.795 6.214 6.214 0 00-4.226 1.62c-1.133 1.042-1.793 2.465-1.839 3.965-.107 2.673-.107 5.364-.107 7.953 0 2.59 0 5.297.125 7.971.046 1.495.704 2.914 1.834 3.954a6.196 6.196 0 004.213 1.614 6.329 6.329 0 003.042-.779l3.237-1.794V14.05l-3.237-1.794z" fill="#fff"/></svg>