<svg width="36" height="36" fill="none" xmlns="http://www.w3.org/2000/svg"><circle cx="18" cy="18" r="18" fill="#E2001A"/><g filter="url(#filter0_d_420_1548)" clip-path="url(#clip0_420_1548)"><path d="M24.858 13.872l-4.297-2.633c-.587-.358-1.64-.98-2.668-1.568v16.677l2.508-1.484c.934-.55 2.976-1.79 4.457-2.697a5.014 5.014 0 001.74-1.783 4.758 4.758 0 00.633-2.365c0-.826-.218-1.64-.632-2.364a5.014 5.014 0 00-1.741-1.783z" fill="#F6F6F6"/><path d="M15.68 8.443a4.616 4.616 0 00-2.282-.596 4.66 4.66 0 00-3.17 1.214 4.222 4.222 0 00-1.379 2.974C8.77 14.04 8.77 16.06 8.77 18c0 1.942 0 3.973.094 5.979a4.21 4.21 0 001.375 2.965 4.647 4.647 0 003.16 1.21c.801 0 1.588-.202 2.281-.584l2.428-1.345V9.79L15.68 8.443z" fill="#fff"/></g><defs><clipPath id="clip0_420_1548"><path fill="#fff" transform="translate(6 6)" d="M0 0h24v24H0z"/></clipPath><filter id="filter0_d_420_1548" x="4.769" y="3.847" width="26.461" height="28.308" filterUnits="userSpaceOnUse" color-interpolation-filters="sRGB"><feFlood flood-opacity="0" result="BackgroundImageFix"/><feColorMatrix in="SourceAlpha" values="0 0 0 0 0 0 0 0 0 0 0 0 0 0 0 0 0 0 127 0" result="hardAlpha"/><feOffset/><feGaussianBlur stdDeviation="2"/><feComposite in2="hardAlpha" operator="out"/><feColorMatrix values="0 0 0 0 1 0 0 0 0 1 0 0 0 0 1 0 0 0 0.58 0"/><feBlend in2="BackgroundImageFix" result="effect1_dropShadow_420_1548"/><feBlend in="SourceGraphic" in2="effect1_dropShadow_420_1548" result="shape"/></filter></defs></svg>