<svg width="26" height="26" fill="none" xmlns="http://www.w3.org/2000/svg"><path d="M23 13c0 .59-.234 1.155-.65 1.571-.418.417-.983.429-1.572.429H15v5.778c0 .59-.012 1.154-.429 1.571a2.222 2.222 0 01-3.142 0c-.417-.417-.429-.982-.429-1.571V15H5.222c-.59 0-1.154-.012-1.571-.429a2.222 2.222 0 010-3.142c.417-.417.982-.429 1.571-.429H11V5.222c0-.59.012-1.154.429-1.571a2.222 2.222 0 013.142 0c.417.417.429.982.429 1.571V11h5.778c.59 0 1.154.012 1.571.429.417.416.651.982.651 1.571z" fill="#fff"/></svg>