<svg width="134" height="146" fill="none" xmlns="http://www.w3.org/2000/svg"><path fill-rule="evenodd" clip-rule="evenodd" d="M50.866 15.753c15.572 10.236 34.356 9.428 50.186.49l3.886 8.023c17.421 35.969 8.627 79.148-21.488 105.508h.002l-.003.001.001-.001c-39.495-6.468-70.14-38.378-74.355-78.12l-.94-8.865c18.162-.776 34.9-10.118 42.711-27.036z" fill="#FEA7C1"/><mask id="path-2-outside-1_183_2731" maskUnits="userSpaceOnUse" x="58.931" y="45.604" width="60.441" height="61.396" fill="#000"><path fill="#fff" d="M58.931 45.604h60.441V107H58.931z"/><path d="M112.056 70.81a3.568 3.568 0 00-2.026.886 3.5 3.5 0 00-1.104 1.9l-3.895.072a16.391 16.391 0 00-5.045-10.089l2.676-3.471c.916.513 2 .668 3.039.433a4.38 4.38 0 002.582-1.701c.622-.86.901-1.914.784-2.954a4.117 4.117 0 00-1.421-2.672 4.237 4.237 0 00-2.888-1.004 4.38 4.38 0 00-2.856 1.185 4.28 4.28 0 00-1.341 2.76 4.12 4.12 0 00.869 2.901l-2.676 3.472c-3.079-2.375-6.916-3.605-10.856-3.48l-.303-3.534a3.503 3.503 0 001.889-1.528 3.375 3.375 0 00.416-2.363 3.302 3.302 0 00-1.265-2.016 3.409 3.409 0 00-2.315-.663 3.511 3.511 0 00-2.207 1.022 3.428 3.428 0 00-.997 2.196c-.053.822.2 1.63.711 2.273a3.357 3.357 0 002.064 1.214l.303 3.533a17.44 17.44 0 00-10.306 5.161L73.08 61.93a4.208 4.208 0 00.493-3.01 4.12 4.12 0 00-1.678-2.52 4.263 4.263 0 00-2.977-.721 4.38 4.38 0 00-2.732 1.45 4.258 4.258 0 00-1.068 2.87 4.119 4.119 0 001.15 2.8 4.213 4.213 0 002.772 1.276 4.372 4.372 0 002.954-.91l2.807 2.414c-2.46 3.083-3.773 6.894-3.717 10.784l-3.582.213a2.896 2.896 0 00-1.36-1.545 3.008 3.008 0 00-2.07-.272 3.07 3.07 0 00-1.767 1.135 2.974 2.974 0 00-.606 1.987c.045.709.347 1.373.851 1.871a2.956 2.956 0 001.894.844A3.065 3.065 0 0066.46 80a3.02 3.02 0 001.15-1.744l3.467-.204a16.374 16.374 0 005.032 10.078l-3.006 3.172c-.917-.513-2-.668-3.04-.434a4.374 4.374 0 00-2.581 1.702 4.232 4.232 0 00-.784 2.953 4.117 4.117 0 001.42 2.673 4.238 4.238 0 002.888 1.004 4.378 4.378 0 002.856-1.186 4.283 4.283 0 001.341-2.76 4.126 4.126 0 00-.869-2.9l3.007-3.173c3.079 2.376 6.916 3.606 10.856 3.481l.331 4.022a3.502 3.502 0 00-1.889 1.528 3.373 3.373 0 00-.416 2.362 3.3 3.3 0 001.265 2.017 3.41 3.41 0 002.314.663 3.513 3.513 0 002.207-1.022c.59-.592.945-1.373.998-2.196a3.306 3.306 0 00-.711-2.273 3.358 3.358 0 00-2.064-1.215l-.331-4.021c3.916-.5 7.56-2.323 10.306-5.161l3.038 2.91a4.208 4.208 0 00-.493 3.009 4.119 4.119 0 001.678 2.52c.86.6 1.922.857 2.977.722a4.382 4.382 0 002.732-1.45 4.26 4.26 0 001.068-2.87 4.123 4.123 0 00-1.151-2.8 4.211 4.211 0 00-2.771-1.277 4.374 4.374 0 00-2.954.91l-2.922-2.918c2.46-3.083 3.774-6.895 3.717-10.785l3.942-.074a3.288 3.288 0 001.054 1.517 3.37 3.37 0 001.717.722 3.495 3.495 0 003.301-1.508 3.401 3.401 0 00.583-1.773 3.299 3.299 0 00-1.796-3.064 3.413 3.413 0 00-1.836-.362l-.034.014z"/></mask><path d="M112.056 70.81a3.568 3.568 0 00-2.026.886 3.5 3.5 0 00-1.104 1.9l-3.895.072a16.391 16.391 0 00-5.045-10.089l2.676-3.471c.916.513 2 .668 3.039.433a4.38 4.38 0 002.582-1.701c.622-.86.901-1.914.784-2.954a4.117 4.117 0 00-1.421-2.672 4.237 4.237 0 00-2.888-1.004 4.38 4.38 0 00-2.856 1.185 4.28 4.28 0 00-1.341 2.76 4.12 4.12 0 00.869 2.901l-2.676 3.472c-3.079-2.375-6.916-3.605-10.856-3.48l-.303-3.534a3.503 3.503 0 001.889-1.528 3.375 3.375 0 00.416-2.363 3.302 3.302 0 00-1.265-2.016 3.409 3.409 0 00-2.315-.663 3.511 3.511 0 00-2.207 1.022 3.428 3.428 0 00-.997 2.196c-.053.822.2 1.63.711 2.273a3.357 3.357 0 002.064 1.214l.303 3.533a17.44 17.44 0 00-10.306 5.161L73.08 61.93a4.208 4.208 0 00.493-3.01 4.12 4.12 0 00-1.678-2.52 4.263 4.263 0 00-2.977-.721 4.38 4.38 0 00-2.732 1.45 4.258 4.258 0 00-1.068 2.87 4.119 4.119 0 001.15 2.8 4.213 4.213 0 002.772 1.276 4.372 4.372 0 002.954-.91l2.807 2.414c-2.46 3.083-3.773 6.894-3.717 10.784l-3.582.213a2.896 2.896 0 00-1.36-1.545 3.008 3.008 0 00-2.07-.272 3.07 3.07 0 00-1.767 1.135 2.974 2.974 0 00-.606 1.987c.045.709.347 1.373.851 1.871a2.956 2.956 0 001.894.844A3.065 3.065 0 0066.46 80a3.02 3.02 0 001.15-1.744l3.467-.204a16.374 16.374 0 005.032 10.078l-3.006 3.172c-.917-.513-2-.668-3.04-.434a4.374 4.374 0 00-2.581 1.702 4.232 4.232 0 00-.784 2.953 4.117 4.117 0 001.42 2.673 4.238 4.238 0 002.888 1.004 4.378 4.378 0 002.856-1.186 4.283 4.283 0 001.341-2.76 4.126 4.126 0 00-.869-2.9l3.007-3.173c3.079 2.376 6.916 3.606 10.856 3.481l.331 4.022a3.502 3.502 0 00-1.889 1.528 3.373 3.373 0 00-.416 2.362 3.3 3.3 0 001.265 2.017 3.41 3.41 0 002.314.663 3.513 3.513 0 002.207-1.022c.59-.592.945-1.373.998-2.196a3.306 3.306 0 00-.711-2.273 3.358 3.358 0 00-2.064-1.215l-.331-4.021c3.916-.5 7.56-2.323 10.306-5.161l3.038 2.91a4.208 4.208 0 00-.493 3.009 4.119 4.119 0 001.678 2.52c.86.6 1.922.857 2.977.722a4.382 4.382 0 002.732-1.45 4.26 4.26 0 001.068-2.87 4.123 4.123 0 00-1.151-2.8 4.211 4.211 0 00-2.771-1.277 4.374 4.374 0 00-2.954.91l-2.922-2.918c2.46-3.083 3.774-6.895 3.717-10.785l3.942-.074a3.288 3.288 0 001.054 1.517 3.37 3.37 0 001.717.722 3.495 3.495 0 003.301-1.508 3.401 3.401 0 00.583-1.773 3.299 3.299 0 00-1.796-3.064 3.413 3.413 0 00-1.836-.362l-.034.014z" fill="#fff"/><path d="M102.857 54.761l-.371-.329h-.001l.372.33zm-.64 1.843l-.498.039.498-.039zM67.608 61.78l-.326.384.9.766-.075-1.19-.499.04zm1.534-4.46l-.032-.498.032.499zm2.082 4.173l.37.33.002-.002-.372-.328zm-3.617.275l.328-.382-.902-.773.076 1.195.499-.04zm-1.627 15.78l-.498.04.498-.04zm-1.183 1.358l.032.498h.004l-.036-.499zm8.107 17.71l.462-.198-.304-.736-.531.606.373.327zm-.227-3.567l-.328.382.005.004.323-.386zm.24 3.6l-.461.197.301.73.531-.598-.37-.33zm18.438 3.097l.475-.16-.974.2.499-.04zm.014.045l-.475.16.974-.186-.499.026zm20.994-23.973l.462-.198-.136-.33-.357.029.031.499zM113.96 74l-.498.04v.01l.498-.05zm-1.583 1.85l-.462.197.137.332.36-.031-.035-.499zm-9.52-21.09l.371.33a2.113 2.113 0 011.216-.679l-.078-.493-.078-.493a3.125 3.125 0 00-1.802 1.006l.371.33zm1.509-.842l.078.493c.472-.082.954 0 1.364.23l.249-.439.249-.438a3.056 3.056 0 00-2.018-.34l.078.494zm2.816 3.265l-.471-.158a2.082 2.082 0 01-.864 1.078l.259.424.26.424a3.101 3.101 0 001.288-1.61l-.472-.158zm-1.076 1.344l-.259-.423a2.106 2.106 0 01-1.358.307l-.066.497-.065.497a3.111 3.111 0 002.008-.454l-.26-.424zm-1.683.38l.066-.496a2.025 2.025 0 01-1.23-.608l-.363.35-.363.349a3.005 3.005 0 001.825.903l.065-.497zm-1.527-.755l.363-.35a1.97 1.97 0 01-.543-1.238l-.499.04-.498.039c.044.698.332 1.355.814 1.859l.363-.35zm-.679-1.549l.499-.038a2.045 2.045 0 01.513-1.477l-.372-.328-.372-.328a3.062 3.062 0 00-.766 2.21l.498-.039zm-17.452-4.186l.498-.04a1.19 1.19 0 01.16-.669l-.43-.247-.43-.247a2.19 2.19 0 00-.296 1.243l.498-.04zm.228-.956l.43.247c.12-.204.297-.372.513-.48l-.218-.447-.218-.447a2.253 2.253 0 00-.938.88l.43.247zm.725-.68l.218.448c.215-.108.457-.151.695-.124l.065-.497.065-.498c-.431-.05-.87.029-1.26.224l.217.447zm.978-.173l-.064.497c.238.027.46.124.639.276l.327-.383.327-.383a2.176 2.176 0 00-1.164-.505l-.065.498zm.902.39l-.327.383c.178.153.305.354.365.578l.483-.137.482-.138a2.136 2.136 0 00-.676-1.069l-.327.383zm-.094 2.606l-.3-.395c-.19.147-.42.235-.66.255l.032.498.031.5a2.266 2.266 0 001.198-.463l-.3-.395zm-.928.359l-.032-.5a1.204 1.204 0 01-.877-.28l-.327.383-.328.383c.44.375 1.014.559 1.595.512l-.031-.498zm-1.236-.397l.327-.383a1.153 1.153 0 01-.404-.805l-.498.04-.498.039c.037.58.306 1.117.746 1.492l.327-.383zm-17.732 8.212l.327-.384a1.981 1.981 0 01-.63-.992l-.483.138-.482.139a2.96 2.96 0 00.942 1.483l.326-.384zm-.785-1.238l.482-.138a2.005 2.005 0 01.04-1.177l-.471-.157-.472-.156a3.012 3.012 0 00-.062 1.767l.483-.139zm.05-1.472l.473.157c.131-.383.374-.721.7-.972l-.301-.395-.301-.395a3.109 3.109 0 00-1.042 1.449l.472.156zm.872-1.21l.3.395a2.123 2.123 0 011.128-.435l-.031-.5-.032-.498a3.137 3.137 0 00-1.666.643l.3.395zm1.397-.54l.031.5a2.07 2.07 0 011.172.252l.248-.438.247-.438a3.059 3.059 0 00-1.73-.374l.032.499zm2.703 2.824l-.495-.061a2.06 2.06 0 01-.498 1.081l.372.329.372.328a3.079 3.079 0 00.744-1.617l-.495-.06zm-.62 1.349l-.372-.33c-.363.41-.874.664-1.423.706l.03.499.03.499a3.138 3.138 0 002.105-1.045l-.37-.33zm-1.765.875l-.03-.5a2.057 2.057 0 01-1.495-.482l-.328.382-.327.383c.608.52 1.403.777 2.21.716l-.03-.5zm-1.852-.6l-.499.04v.011l.5-.04.498-.039-.001-.011-.498.04zm-2.823 17.138l-.031-.499a.783.783 0 01-.443-.095l-.247.439-.248.438a1.77 1.77 0 001.001.216l-.031-.499zm-.721-.155l.247-.439a.747.747 0 01-.306-.318l-.447.23-.447.23c.156.31.402.566.705.735l.248-.438zm-.506-.527l.447-.23a.74.74 0 01-.07-.431l-.495-.06-.495-.06c-.048.348.01.7.166 1.01l.447-.23zm-.118-.721l.494.06a.769.769 0 01.186-.404l-.373-.328-.372-.327a1.787 1.787 0 00-.43.939l.495.06zm1.68-1.054l-.16.477a.758.758 0 01.366.253l.395-.313.395-.313a1.737 1.737 0 00-.838-.581l-.159.477zm.601.417l-.395.313a.73.73 0 01.156.408l.498-.04.499-.039a1.725 1.725 0 00-.363-.955l-.395.313zm.26.682l-.5.04a.762.762 0 01-.188.548l.374.326.374.326c.31-.354.467-.814.438-1.28l-.499.04zm-.314.914l-.374-.326a.8.8 0 01-.532.27l.036.5.036.498c.465-.041.9-.262 1.208-.616l-.374-.326zm-.87.444l-.032-.5-.011.001.031.5.032.498h.012l-.032-.5zm8.107 17.71l-.373-.328c-.27.308-.625.532-1.022.643l.128.482.127.482a3.14 3.14 0 001.513-.953l-.373-.327zm-1.267.797l-.128-.482a2.095 2.095 0 01-1.204-.02l-.159.477-.158.478a3.092 3.092 0 001.776.029l-.127-.482zm-1.49-.025l.158-.477a2.015 2.015 0 01-.974-.675l-.395.313-.394.313c.37.471.873.82 1.446 1.004l.159-.478zm-1.21-.839l.394-.313a1.98 1.98 0 01-.418-1.096l-.498.04-.499.039c.039.6.257 1.172.626 1.643l.394-.313zm-.522-1.37l.498-.04c-.025-.399.07-.8.275-1.15l-.43-.248-.43-.248a3.044 3.044 0 00-.412 1.726l.499-.04zm2.906-2.72l-.065.497c.407.048.787.213 1.093.475l.328-.382.328-.383a3.024 3.024 0 00-1.618-.704l-.066.497zm1.356.59l-.323.386c.207.173.376.386.498.624l.446-.233.445-.233A2.963 2.963 0 0073 92.66l-.323.387zm.62.777l-.445.233c.122.24.193.5.211.768l.499-.041.498-.042a2.97 2.97 0 00-.317-1.15l-.445.232zm.265.96l-.499.04c.018.269-.018.538-.107.794l.472.158.472.157c.132-.384.187-.788.16-1.19l-.498.04zm-.134.992l-.472-.158a2.076 2.076 0 01-.41.7l.372.328.37.33c.271-.305.48-.66.612-1.043l-.472-.157zm-.51.87l.461-.197-.013-.033-.462.197-.462.198.014.033.462-.198zm18.436 3.098l-.498.04c.015.231-.04.464-.16.669l.43.247.431.248c.22-.378.323-.811.296-1.244l-.498.04zm-.227.956l-.43-.247a1.23 1.23 0 01-.513.48l.218.447.217.447c.391-.196.718-.502.938-.879l-.43-.248zm-.725.68l-.218-.447a1.233 1.233 0 01-.696.123l-.065.498-.064.497c.43.05.87-.028 1.26-.224l-.217-.447zm-.979.174l.065-.498a1.193 1.193 0 01-.639-.276l-.327.383-.327.383c.327.28.733.455 1.164.505l.064-.497zm-.901-.391l.327-.383a1.157 1.157 0 01-.366-.578l-.482.138-.483.137c.113.418.349.789.677 1.069l.327-.383zm-.521-.823l.482-.138a1.166 1.166 0 01.025-.684l-.472-.157-.472-.157a2.169 2.169 0 00-.045 1.273l.482-.137zm1.543-2.141l.035.498a1.22 1.22 0 01.48.055l.16-.477.16-.477a2.214 2.214 0 00-.87-.098l.035.499zm.675.076l-.16.477c.154.049.295.129.415.233l.33-.38.332-.38a2.164 2.164 0 00-.758-.427l-.16.477zm.586.33l-.331.38c.12.105.217.232.285.375l.45-.222.452-.221a2.135 2.135 0 00-.525-.692l-.331.38zm.405.533l-.451.222c.067.142.105.297.11.454l.5-.025.5-.026a2.143 2.143 0 00-.208-.846l-.451.221zm.159.65l.475-.16-.014-.045-.475.16-.476.162.015.045.475-.161zm17.154-9.544l-.288.413c.388.269.667.662.789 1.113l.482-.139.482-.139a2.966 2.966 0 00-1.177-1.662l-.288.414zm.983 1.387l-.482.139c.123.45.083.932-.114 1.363l.454.202.454.203a3.015 3.015 0 00.17-2.046l-.482.14zm-.142 1.704l-.454-.202a2.1 2.1 0 01-.968 1.003l.219.447.218.446a3.123 3.123 0 001.439-1.491l-.454-.203zm-1.203 1.248l-.219-.447a2.11 2.11 0 01-1.388.18l-.111.49-.112.49a3.112 3.112 0 002.048-.267l-.218-.446zm-1.718.224l.111-.49c-.467-.1-.88-.357-1.17-.725l-.394.313-.394.314a3 3 0 001.735 1.077l.112-.49zm-1.453-.902l.394-.313a1.98 1.98 0 01-.423-1.294l-.499-.01-.499-.009c-.024.704.2 1.39.633 1.94l.394-.314zm7.373-18.09l-.031-.498a1.216 1.216 0 01-.686-.148l-.247.439-.248.438a2.2 2.2 0 001.244.269l-.032-.5zm-.964-.207l.247-.439a1.164 1.164 0 01-.475-.496l-.448.23-.447.23c.193.386.498.703.875.913l.248-.438zm-.676-.705l.448-.23a1.159 1.159 0 01-.112-.673l-.494-.06-.495-.06c-.059.431.013.867.206 1.253l.447-.23zm-.158-.963l.494.06a1.2 1.2 0 01.29-.63l-.373-.327-.372-.328a2.215 2.215 0 00-.534 1.165l.495.06zm.411-.897l.373.328c.157-.18.365-.31.597-.375l-.127-.482-.127-.482a2.26 2.26 0 00-1.088.683l.372.328zm2.638.046l-.395.313c.144.184.228.406.243.638l.498-.04.498-.04a2.132 2.132 0 00-.45-1.183l-.394.312zm.346.911l-.498.05c.014.155-.005.312-.054.462l.475.148.475.15c.09-.279.124-.57.1-.86l-.498.05zm-.077.66l-.475-.148c-.048.15-.127.289-.231.41l.377.323.377.322c.191-.222.336-.48.427-.758l-.475-.149zm-.329.585l-.377-.323a1.23 1.23 0 01-.374.296l.222.445.222.444a2.23 2.23 0 00.684-.54l-.377-.322zm-.529.418l-.222-.445a1.24 1.24 0 01-.461.132l.035.5.035.498a2.26 2.26 0 00.835-.24l-.222-.445zm-.648.186l.462-.197-.014-.034-.462.198-.462.197.014.034.462-.198zm-.321-5.04l.082.995.15-.014.14-.058-.372-.924zm-3.13 2.787l.002 1 .809-.014.166-.796-.977-.19zm-3.895.07l-.993.129.101.889.894-.017-.002-1zM99.986 63.58l-.787-.604-.557.722.653.616.69-.734zm2.676-3.471l.497-.876-.751-.421-.533.692.787.605zm-1.232-1.052l.787.605.48-.624-.48-.609-.787.628zm-2.676 3.472l-.617.797.787.607.617-.8-.787-.604zm-10.856-3.48l-.995.1.08.93.93-.03-.015-1zm-.303-3.534l-.307-.948-.757.256.068.793.995-.101zm-1.275-6.57l.064.998-.064-.998zm-.43 6.705l.996-.101-.065-.758-.747-.128-.183.987zm.304 3.533l.111.993.968-.123-.084-.97-.995.1zm-10.306 5.161l-.657.764.708.61.66-.682-.711-.692zM73.08 61.93l-.86-.497-.424.723.627.538.657-.764zm-1.086 1.235l.657-.764-.613-.526-.648.502.604.788zm2.807 2.414l.776.617.605-.759-.724-.623-.657.765zm-3.717 10.784l.044 1 .968-.059-.013-.971-1 .03zm-3.582.213l-.936.364.253.678.726-.043-.043-1zM61.7 77.88l.997-.08-.997.08zm5.91.375l-.043-1-.758.045-.172.743.973.212zm3.466-.204l.992-.128-.104-.926-.931.055.043 1zm5.032 10.078l.72.684.695-.734-.724-.683-.69.733zm-3.006 3.172l-.498.876.676.379.54-.571-.718-.684zm1.231 1.051l-.719-.683-.602.635.534.676.787-.628zm3.007-3.172l.617-.796-.71-.548-.626.66.72.684zm10.856 3.481l.996-.098-.077-.932-.935.03.016 1zm.331 4.022l.307.948.754-.256-.065-.79-.996.098zm1.274 6.57l-.063-.998.063.998zm.43-6.706l-.996.098.063.76.75.13.183-.988zm-.331-4.021l-.11-.993-.965.123.08.968.995-.098zm10.306-5.161l.696-.729-.711-.681-.696.719.711.691zm3.038 2.91l.859.496.402-.685-.565-.54-.696.728zm1.086-1.236l-.71.715.616.615.698-.542-.604-.788zm-2.922-2.918l-.776-.618-.562.705.628.627.71-.714zm3.717-10.785l-.003-1-1.01.019.014 1.012.999-.03zm3.942-.074l.947-.332-.228-.683-.723.014.004 1zm3.023-4.468l-.065-.998-.158.013-.148.061.371.924zm-.034.014l-.081-.996a4.583 4.583 0 00-2.602 1.14l.657.743.657.744a2.554 2.554 0 011.451-.635l-.082-.996zm-2.026.887l-.657-.744a4.523 4.523 0 00-1.425 2.455l.978.19.977.19a2.49 2.49 0 01.784-1.347l-.657-.744zm-1.104 1.9l-.003-1-3.895.07.003 1.002.002 1 3.895-.07-.002-1.001zm-3.895.072l.992-.129a17.372 17.372 0 00-5.347-10.694l-.69.734-.69.734a15.403 15.403 0 014.742 9.483l.993-.128zm-5.045-10.089l.787.604 2.676-3.471-.787-.605-.787-.604-2.676 3.472.787.604zm2.676-3.471l-.498.875a5.28 5.28 0 003.742.535l-.205-.977-.205-.976c-.8.18-1.634.06-2.337-.333l-.497.876zm3.039.433l.205.977a5.394 5.394 0 003.182-2.099l-.805-.579-.806-.58a3.358 3.358 0 01-1.981 1.305l.205.976zm2.582-1.701l.805.58a5.244 5.244 0 00.971-3.662l-.992.128-.993.128a3.219 3.219 0 01-.597 2.247l.806.579zm.784-2.954l.992-.128a5.097 5.097 0 00-1.759-3.31l-.654.766-.654.766c.608.52.993 1.245 1.082 2.034l.993-.128zm-1.421-2.672l.654-.767a5.22 5.22 0 00-3.558-1.238l.016 1 .016 1.002a3.255 3.255 0 012.218.77l.654-.767zm-2.888-1.004l-.016-1a5.394 5.394 0 00-3.517 1.46l.677.725.678.726a3.362 3.362 0 012.194-.91l-.016-1.001zm-2.856 1.185l-.677-.725a5.302 5.302 0 00-1.66 3.417l.996.068.995.068a3.262 3.262 0 011.024-2.102l-.678-.726zm-1.341 2.76l-.996-.068a5.117 5.117 0 001.077 3.597l.788-.628.787-.628a3.14 3.14 0 01-.661-2.205l-.995-.068zm.869 2.901l-.787-.604-2.676 3.472.787.604.787.604 2.676-3.471-.787-.605zm-2.676 3.472l.617-.797c-3.26-2.515-7.322-3.816-11.49-3.684l.017 1 .016 1c3.712-.117 7.326 1.043 10.223 3.278l.617-.797zm-10.856-3.48l.995-.102-.303-3.533-.996.101-.995.101.304 3.533.995-.1zm-.303-3.534l.306.948a4.523 4.523 0 002.44-1.975l-.857-.501-.857-.502a2.48 2.48 0 01-1.339 1.082l.306.948zm1.889-1.528l.857.5c.55-.928.743-2.02.54-3.069l-.981.206-.98.206a2.372 2.372 0 01-.293 1.655l.857.502zm.416-2.363l.98-.206a4.282 4.282 0 00-1.64-2.616l-.605.806-.606.805c.466.349.78.853.89 1.417l.98-.206zm-1.265-2.016l.605-.806a4.394 4.394 0 00-2.983-.855l.063.998.064.998a2.424 2.424 0 011.645.47l.606-.805zm-2.315-.663l-.063-.998a4.526 4.526 0 00-2.845 1.318l.701.702.702.701a2.495 2.495 0 011.569-.725l-.064-.998zm-2.207 1.022l-.701-.702a4.447 4.447 0 00-1.293 2.849l.997.049.997.048a2.409 2.409 0 01.702-1.543l-.702-.701zm-.997 2.196l-.997-.049c-.068 1.07.26 2.12.923 2.953l.785-.631.785-.632a2.317 2.317 0 01-.5-1.593l-.996-.048zm.711 2.273l-.785.631a4.336 4.336 0 002.665 1.57l.184-.987.183-.987a2.38 2.38 0 01-1.462-.859l-.785.632zm2.064 1.214l-.995.101.303 3.534.995-.102.995-.1-.303-3.534-.995.101zm.303 3.533l-.11-.993a18.456 18.456 0 00-10.908 5.463l.712.691.711.692a16.425 16.425 0 019.706-4.86l-.11-.993zm-10.306 5.161l.657-.764-2.807-2.413-.657.764-.657.764 2.807 2.413.657-.764zM73.08 61.93l.859.498a5.217 5.217 0 00.61-3.732l-.976.225-.977.224a3.202 3.202 0 01-.375 2.288l.859.497zm.493-3.01l.977-.224a5.1 5.1 0 00-2.076-3.12l-.579.825-.578.825a3.14 3.14 0 011.28 1.92l.976-.225zm-1.678-2.52l.579-.824a5.25 5.25 0 00-3.667-.89l.11.992.112.994a3.277 3.277 0 012.288.554l.578-.825zm-2.977-.721l-.11-.994a5.397 5.397 0 00-3.367 1.788l.745.656.745.655a3.363 3.363 0 012.098-1.112l-.111-.993zm-2.732 1.45l-.745-.656a5.274 5.274 0 00-1.321 3.556l.998-.03 1-.03a3.24 3.24 0 01.813-2.185l-.745-.655zm-1.068 2.87l-.998.03a5.105 5.105 0 001.424 3.47l.725-.7.724-.7a3.133 3.133 0 01-.876-2.13l-.999.03zm1.15 2.8l-.724.7a5.194 5.194 0 003.417 1.575l.079-.999.079-.999a3.232 3.232 0 01-2.126-.978l-.724.7zm2.772 1.276l-.08 1a5.381 5.381 0 003.637-1.121l-.603-.789-.604-.788a3.362 3.362 0 01-2.271.699l-.08 1zm2.954-.91l-.657.765 2.807 2.413.657-.764.657-.765-2.807-2.413-.657.764zm2.807 2.414l-.777-.618c-2.605 3.266-3.998 7.306-3.939 11.432l.999-.03.999-.03c-.053-3.654 1.181-7.237 3.494-10.137l-.776-.617zm-3.717 10.784l-.044-1-3.582.213.044 1 .043 1 3.583-.214-.044-1zm-3.582.213l.936-.364a3.875 3.875 0 00-1.82-2.068l-.477.887-.477.886c.42.223.739.587.902 1.023l.936-.364zm-1.36-1.545l.477-.887a4 4 0 00-2.75-.362l.204.977.204.977a2.018 2.018 0 011.387.181l.477-.886zm-2.07-.272l-.203-.977a4.089 4.089 0 00-2.355 1.513l.79.599.792.599c.289-.38.708-.65 1.181-.757l-.204-.977zm-1.767 1.135l-.791-.6a3.99 3.99 0 00-.812 2.666l.997-.08.997-.078c-.03-.465.11-.93.4-1.31l-.791-.599zM61.7 77.88l-.997.079c.06.953.467 1.844 1.141 2.51l.707-.718.707-.718a1.902 1.902 0 01-.561-1.232l-.997.079zm.851 1.871l-.707.718a3.937 3.937 0 002.523 1.125l.078-.999.079-.999a1.975 1.975 0 01-1.266-.563l-.707.718zm1.894.844l-.078 1c.952.06 1.902-.22 2.676-.793L66.458 80l-.584-.803c-.389.287-.868.43-1.35.399l-.079 1zM66.46 80l.584.803a4.048 4.048 0 001.54-2.334l-.973-.213-.973-.212a2.003 2.003 0 01-.763 1.154l.585.803zm1.15-1.744l.044 1 3.466-.204-.043-1-.043-1-3.466.205.043 1zm3.467-.204l-.993.128a17.36 17.36 0 005.334 10.684l.691-.734.691-.733a15.391 15.391 0 01-4.73-9.473l-.993.128zm5.032 10.078l-.719-.683-3.007 3.172.72.683.719.684 3.007-3.172-.72-.684zm-3.006 3.172l.497-.875a5.28 5.28 0 00-3.741-.535l.204.976.205.977a3.3 3.3 0 012.337.333l.498-.876zm-3.04-.434l-.204-.976a5.396 5.396 0 00-3.183 2.099l.806.579.805.579a3.358 3.358 0 011.981-1.304l-.204-.977zm-2.581 1.702l-.806-.58a5.246 5.246 0 00-.971 3.661l.993-.128.992-.128c-.09-.789.123-1.59.597-2.246l-.805-.58zm-.784 2.953l-.993.128a5.1 5.1 0 001.759 3.311l.654-.766.654-.767a3.134 3.134 0 01-1.082-2.034l-.992.128zm1.42 2.673l-.654.766a5.218 5.218 0 003.558 1.238l-.016-1-.016-1a3.254 3.254 0 01-2.218-.77l-.654.766zm2.888 1.004l.016 1a5.39 5.39 0 003.517-1.46l-.677-.726-.677-.725a3.365 3.365 0 01-2.195.91l.016 1zm2.856-1.186l.677.726a5.302 5.302 0 001.66-3.417l-.995-.068-.996-.069a3.263 3.263 0 01-1.023 2.103l.677.725zm1.341-2.76l.996.069a5.116 5.116 0 00-1.077-3.598l-.788.628-.787.628c.493.626.727 1.412.661 2.206l.996.068zm-.869-2.9l.72.683 3.006-3.172-.719-.684-.719-.683-3.007 3.172.72.683zm3.007-3.173l-.617.797c3.26 2.515 7.322 3.817 11.49 3.685l-.017-1-.016-1.001c-3.712.117-7.326-1.043-10.223-3.277l-.617.796zm10.856 3.481l-.995.098.33 4.021.996-.097.996-.098-.331-4.022-.996.098zm.331 4.022l-.306-.948a4.524 4.524 0 00-2.44 1.975l.857.5.857.502a2.48 2.48 0 011.339-1.081l-.307-.948zm-1.889 1.528l-.857-.501a4.386 4.386 0 00-.54 3.069l.981-.206.98-.205a2.365 2.365 0 01.293-1.656l-.857-.501zm-.416 2.362l-.98.206a4.28 4.28 0 001.64 2.616l.605-.805.606-.805a2.323 2.323 0 01-.89-1.417l-.981.205zm1.265 2.017l-.605.805a4.393 4.393 0 002.983.856l-.064-.998-.063-.998a2.424 2.424 0 01-1.645-.47l-.606.805zm2.314.663l.064.998a4.53 4.53 0 002.845-1.318l-.701-.702-.702-.702a2.49 2.49 0 01-1.57.726l.064.998zm2.207-1.022l.702.702a4.447 4.447 0 001.293-2.849l-.997-.049-.997-.049a2.407 2.407 0 01-.702 1.543l.701.702zm.998-2.196l.996.049a4.296 4.296 0 00-.922-2.954l-.785.632-.785.631c.36.452.536 1.018.499 1.593l.997.049zm-.711-2.273l.784-.632a4.337 4.337 0 00-2.665-1.57l-.183.987-.183.987c.583.1 1.102.407 1.462.86l.785-.632zm-2.064-1.215l.995-.097-.33-4.022-.996.098-.996.098.331 4.021.996-.098zm-.331-4.021l.11.993a18.445 18.445 0 0010.908-5.463l-.712-.691-.711-.691a16.412 16.412 0 01-9.706 4.859l.111.993zm10.306-5.161l-.696.729 3.038 2.91.696-.73.696-.729-3.038-2.909-.696.729zm3.038 2.91l-.859-.498a5.22 5.22 0 00-.611 3.731l.977-.224.977-.225a3.201 3.201 0 01.375-2.288l-.859-.497zm-.493 3.009l-.977.224a5.104 5.104 0 002.076 3.12l.579-.824.578-.825a3.14 3.14 0 01-1.279-1.92l-.977.225zm1.678 2.52l-.579.825a5.25 5.25 0 003.667.89l-.111-.993-.111-.993a3.277 3.277 0 01-2.288-.554l-.578.825zm2.977.722l.111.993a5.399 5.399 0 003.366-1.788l-.745-.655-.745-.656a3.364 3.364 0 01-2.098 1.113l.111.993zm2.732-1.45l.745.655a5.273 5.273 0 001.321-3.555l-.998.03-.999.03a3.243 3.243 0 01-.814 2.184l.745.656zm1.068-2.87l.998-.03a5.108 5.108 0 00-1.424-3.47l-.725.7-.724.7c.553.576.864 1.335.876 2.13l.999-.03zm-1.151-2.8l.725-.7a5.196 5.196 0 00-3.417-1.576l-.079 1-.079.998a3.233 3.233 0 012.126.978l.724-.7zm-2.771-1.277l.079-.999a5.382 5.382 0 00-3.636 1.12l.603.79.604.787a3.362 3.362 0 012.271-.699l.079-.999zm-2.954.91l.711-.715-2.922-2.918-.711.715-.71.714 2.922 2.919.71-.715zm-2.922-2.918l.777.618c2.605-3.266 3.999-7.307 3.939-11.433l-.999.03-.999.03c.054 3.654-1.18 7.237-3.494 10.137l.776.618zm3.717-10.785l.004 1.001 3.941-.074-.003-1.001-.004-1.001-3.941.075.003 1zm3.942-.074l-.948.331a4.272 4.272 0 001.368 1.969l.634-.783.634-.784a2.307 2.307 0 01-.741-1.064l-.947.33zm1.054 1.517l-.634.783a4.352 4.352 0 002.217.933l.134-.994.135-.994a2.393 2.393 0 01-1.218-.511l-.634.783zm1.717.722l-.134.994a4.482 4.482 0 002.397-.375l-.402-.91-.403-.91c-.415.19-.873.261-1.323.207l-.135.994zm1.861-.291l.402.91a4.509 4.509 0 001.861-1.574l-.823-.553-.824-.553c-.252.372-.605.67-1.019.86l.403.91zm1.44-1.217l.823.553a4.409 4.409 0 00.758-2.304l-.998-.022-.998-.023a2.39 2.39 0 01-.409 1.243l.824.553zm.583-1.773l.998.022a4.292 4.292 0 00-.584-2.333l-.863.517-.864.517c.223.38.331.814.315 1.254l.998.023zm-.449-1.794l.863-.517a4.29 4.29 0 00-1.744-1.645l-.466.892-.466.893c.399.204.727.515.949.895l.864-.518zm-1.347-1.27l.466-.892a4.402 4.402 0 00-2.367-.468l.065.998.066.998c.454-.037.906.052 1.304.257l.466-.893zm-1.836-.362l-.371-.924-.034.015.371.923.372.924.034-.015-.372-.923z" fill="#fff" mask="url(#path-2-outside-1_183_2731)"/><ellipse cx="51.507" cy="47.747" rx="8" ry="9" fill="#fff"/><ellipse cx="41.007" cy="65.747" rx="4.5" ry="5" fill="#fff"/></svg>